G04 EAGLE Gerber RS-274X export*
G75*
%MOMM*%
%FSLAX34Y34*%
%LPD*%
%INBottom Copper*%
%IPPOS*%
%AMOC8*
5,1,8,0,0,1.08239X$1,22.5*%
G01*
%ADD10C,1.524000*%
%ADD11C,0.203200*%
%ADD12C,0.685800*%
%ADD13C,0.381000*%

G36*
X623688Y3826D02*
X623688Y3826D01*
X623807Y3833D01*
X623845Y3846D01*
X623886Y3851D01*
X623996Y3894D01*
X624109Y3931D01*
X624144Y3953D01*
X624181Y3968D01*
X624277Y4037D01*
X624378Y4101D01*
X624406Y4131D01*
X624439Y4154D01*
X624515Y4246D01*
X624596Y4333D01*
X624616Y4368D01*
X624641Y4399D01*
X624692Y4507D01*
X624750Y4611D01*
X624760Y4651D01*
X624777Y4687D01*
X624799Y4804D01*
X624829Y4919D01*
X624833Y4979D01*
X624837Y4999D01*
X624835Y5020D01*
X624839Y5080D01*
X624839Y756920D01*
X624824Y757038D01*
X624817Y757157D01*
X624804Y757195D01*
X624799Y757236D01*
X624756Y757346D01*
X624719Y757459D01*
X624697Y757494D01*
X624682Y757531D01*
X624613Y757627D01*
X624549Y757728D01*
X624519Y757756D01*
X624496Y757789D01*
X624404Y757865D01*
X624317Y757946D01*
X624282Y757966D01*
X624251Y757991D01*
X624143Y758042D01*
X624039Y758100D01*
X623999Y758110D01*
X623963Y758127D01*
X623846Y758149D01*
X623731Y758179D01*
X623671Y758183D01*
X623651Y758187D01*
X623630Y758185D01*
X623570Y758189D01*
X5080Y758189D01*
X4962Y758174D01*
X4843Y758167D01*
X4805Y758154D01*
X4764Y758149D01*
X4654Y758106D01*
X4541Y758069D01*
X4506Y758047D01*
X4469Y758032D01*
X4373Y757963D01*
X4272Y757899D01*
X4244Y757869D01*
X4211Y757846D01*
X4135Y757754D01*
X4054Y757667D01*
X4034Y757632D01*
X4009Y757601D01*
X3958Y757493D01*
X3900Y757389D01*
X3890Y757349D01*
X3873Y757313D01*
X3851Y757196D01*
X3821Y757081D01*
X3817Y757021D01*
X3813Y757001D01*
X3815Y756980D01*
X3811Y756920D01*
X3811Y5080D01*
X3826Y4962D01*
X3833Y4843D01*
X3846Y4805D01*
X3851Y4764D01*
X3894Y4654D01*
X3931Y4541D01*
X3953Y4506D01*
X3968Y4469D01*
X4037Y4373D01*
X4101Y4272D01*
X4131Y4244D01*
X4154Y4211D01*
X4246Y4135D01*
X4333Y4054D01*
X4368Y4034D01*
X4399Y4009D01*
X4507Y3958D01*
X4611Y3900D01*
X4651Y3890D01*
X4687Y3873D01*
X4804Y3851D01*
X4919Y3821D01*
X4979Y3817D01*
X4999Y3813D01*
X5020Y3815D01*
X5080Y3811D01*
X623570Y3811D01*
X623688Y3826D01*
G37*
%LPC*%
G36*
X48880Y693927D02*
X48880Y693927D01*
X45332Y695397D01*
X42617Y698112D01*
X41147Y701660D01*
X41147Y720740D01*
X42617Y724288D01*
X45332Y727003D01*
X48880Y728473D01*
X52720Y728473D01*
X56268Y727003D01*
X57754Y725517D01*
X57848Y725444D01*
X57937Y725366D01*
X57973Y725347D01*
X58005Y725322D01*
X58114Y725275D01*
X58220Y725221D01*
X58260Y725212D01*
X58297Y725196D01*
X58415Y725177D01*
X58530Y725151D01*
X58571Y725153D01*
X58611Y725146D01*
X58729Y725157D01*
X58848Y725161D01*
X58887Y725172D01*
X58927Y725176D01*
X59040Y725216D01*
X59154Y725249D01*
X59189Y725270D01*
X59227Y725284D01*
X59325Y725351D01*
X59428Y725411D01*
X59473Y725451D01*
X59490Y725462D01*
X59503Y725478D01*
X59549Y725517D01*
X65668Y731636D01*
X68346Y734315D01*
X209618Y734315D01*
X228423Y715509D01*
X228502Y715449D01*
X228574Y715381D01*
X228627Y715352D01*
X228675Y715315D01*
X228766Y715275D01*
X228852Y715227D01*
X228911Y715212D01*
X228967Y715188D01*
X229065Y715173D01*
X229160Y715148D01*
X229260Y715142D01*
X229281Y715138D01*
X229293Y715140D01*
X229321Y715138D01*
X357378Y715138D01*
X357496Y715153D01*
X357615Y715160D01*
X357653Y715173D01*
X357694Y715178D01*
X357804Y715221D01*
X357917Y715258D01*
X357952Y715280D01*
X357989Y715295D01*
X358085Y715364D01*
X358186Y715428D01*
X358214Y715458D01*
X358247Y715481D01*
X358323Y715573D01*
X358404Y715660D01*
X358424Y715695D01*
X358449Y715726D01*
X358500Y715834D01*
X358558Y715938D01*
X358568Y715978D01*
X358585Y716014D01*
X358607Y716131D01*
X358637Y716246D01*
X358641Y716306D01*
X358645Y716326D01*
X358643Y716347D01*
X358647Y716407D01*
X358647Y720740D01*
X360117Y724288D01*
X362832Y727003D01*
X366380Y728473D01*
X370220Y728473D01*
X373768Y727003D01*
X376483Y724288D01*
X377953Y720740D01*
X377953Y701660D01*
X376483Y698112D01*
X373768Y695397D01*
X370220Y693927D01*
X366380Y693927D01*
X362832Y695397D01*
X360117Y698112D01*
X358647Y701660D01*
X358647Y705993D01*
X358632Y706111D01*
X358625Y706230D01*
X358612Y706268D01*
X358607Y706309D01*
X358564Y706419D01*
X358527Y706532D01*
X358505Y706567D01*
X358490Y706604D01*
X358421Y706700D01*
X358357Y706801D01*
X358327Y706829D01*
X358304Y706862D01*
X358212Y706938D01*
X358125Y707019D01*
X358090Y707039D01*
X358059Y707064D01*
X357951Y707115D01*
X357847Y707173D01*
X357807Y707183D01*
X357771Y707200D01*
X357654Y707222D01*
X357539Y707252D01*
X357479Y707256D01*
X357459Y707260D01*
X357438Y707258D01*
X357378Y707262D01*
X225533Y707262D01*
X215527Y717268D01*
X215418Y717353D01*
X215311Y717442D01*
X215292Y717450D01*
X215276Y717463D01*
X215148Y717518D01*
X215023Y717577D01*
X215003Y717581D01*
X214984Y717589D01*
X214846Y717611D01*
X214710Y717637D01*
X214690Y717636D01*
X214670Y717639D01*
X214531Y717626D01*
X214393Y717617D01*
X214374Y717611D01*
X214354Y717609D01*
X214222Y717562D01*
X214091Y717519D01*
X214073Y717508D01*
X214054Y717502D01*
X213939Y717423D01*
X213822Y717349D01*
X213808Y717334D01*
X213791Y717323D01*
X213699Y717219D01*
X213604Y717117D01*
X213594Y717100D01*
X213581Y717085D01*
X213517Y716960D01*
X213450Y716839D01*
X213445Y716819D01*
X213436Y716801D01*
X213406Y716665D01*
X213371Y716531D01*
X213369Y716503D01*
X213366Y716491D01*
X213367Y716471D01*
X213361Y716370D01*
X213361Y713739D01*
X204470Y713739D01*
X204352Y713724D01*
X204233Y713717D01*
X204195Y713704D01*
X204155Y713699D01*
X204044Y713656D01*
X203931Y713619D01*
X203897Y713597D01*
X203859Y713582D01*
X203763Y713512D01*
X203662Y713449D01*
X203634Y713419D01*
X203602Y713395D01*
X203526Y713304D01*
X203444Y713217D01*
X203425Y713182D01*
X203399Y713151D01*
X203348Y713043D01*
X203291Y712939D01*
X203280Y712899D01*
X203263Y712863D01*
X203241Y712746D01*
X203211Y712631D01*
X203207Y712570D01*
X203203Y712550D01*
X203205Y712530D01*
X203201Y712470D01*
X203201Y711199D01*
X203199Y711199D01*
X203199Y712470D01*
X203184Y712588D01*
X203177Y712707D01*
X203164Y712745D01*
X203159Y712785D01*
X203115Y712896D01*
X203079Y713009D01*
X203057Y713044D01*
X203042Y713081D01*
X202972Y713177D01*
X202909Y713278D01*
X202879Y713306D01*
X202855Y713339D01*
X202764Y713414D01*
X202677Y713496D01*
X202642Y713516D01*
X202610Y713541D01*
X202503Y713592D01*
X202398Y713650D01*
X202359Y713660D01*
X202323Y713677D01*
X202206Y713699D01*
X202091Y713729D01*
X202030Y713733D01*
X202010Y713737D01*
X201990Y713735D01*
X201930Y713739D01*
X193039Y713739D01*
X193039Y719620D01*
X193289Y721199D01*
X193784Y722720D01*
X194510Y724145D01*
X194712Y724424D01*
X194731Y724459D01*
X194757Y724489D01*
X194808Y724598D01*
X194865Y724703D01*
X194875Y724741D01*
X194892Y724777D01*
X194915Y724895D01*
X194945Y725011D01*
X194945Y725050D01*
X194952Y725090D01*
X194945Y725209D01*
X194945Y725329D01*
X194935Y725367D01*
X194932Y725407D01*
X194895Y725521D01*
X194866Y725637D01*
X194847Y725672D01*
X194834Y725709D01*
X194770Y725811D01*
X194713Y725915D01*
X194685Y725944D01*
X194664Y725978D01*
X194577Y726060D01*
X194495Y726147D01*
X194462Y726169D01*
X194432Y726196D01*
X194328Y726254D01*
X194227Y726318D01*
X194189Y726330D01*
X194154Y726350D01*
X194038Y726379D01*
X193924Y726417D01*
X193885Y726419D01*
X193846Y726429D01*
X193685Y726439D01*
X186896Y726439D01*
X186758Y726422D01*
X186620Y726409D01*
X186600Y726402D01*
X186580Y726399D01*
X186451Y726348D01*
X186320Y726301D01*
X186303Y726290D01*
X186285Y726282D01*
X186172Y726201D01*
X186057Y726123D01*
X186044Y726107D01*
X186027Y726096D01*
X185938Y725988D01*
X185847Y725884D01*
X185838Y725866D01*
X185825Y725851D01*
X185765Y725725D01*
X185702Y725601D01*
X185698Y725581D01*
X185689Y725563D01*
X185663Y725426D01*
X185632Y725291D01*
X185633Y725270D01*
X185629Y725251D01*
X185638Y725112D01*
X185642Y724973D01*
X185648Y724953D01*
X185649Y724933D01*
X185692Y724801D01*
X185731Y724667D01*
X185741Y724650D01*
X185747Y724631D01*
X185821Y724513D01*
X185892Y724393D01*
X185911Y724372D01*
X185917Y724362D01*
X185932Y724348D01*
X185982Y724292D01*
X187453Y720740D01*
X187453Y701660D01*
X185983Y698112D01*
X183268Y695397D01*
X179720Y693927D01*
X175880Y693927D01*
X172332Y695397D01*
X169617Y698112D01*
X168147Y701660D01*
X168147Y720740D01*
X169621Y724297D01*
X169687Y724382D01*
X169775Y724489D01*
X169784Y724508D01*
X169796Y724524D01*
X169852Y724652D01*
X169911Y724777D01*
X169915Y724797D01*
X169923Y724816D01*
X169945Y724953D01*
X169971Y725090D01*
X169969Y725110D01*
X169973Y725130D01*
X169960Y725268D01*
X169951Y725407D01*
X169945Y725426D01*
X169943Y725446D01*
X169896Y725577D01*
X169853Y725709D01*
X169842Y725726D01*
X169835Y725746D01*
X169757Y725861D01*
X169683Y725978D01*
X169668Y725992D01*
X169657Y726009D01*
X169552Y726101D01*
X169451Y726196D01*
X169434Y726206D01*
X169418Y726219D01*
X169294Y726283D01*
X169173Y726350D01*
X169153Y726355D01*
X169135Y726364D01*
X168999Y726394D01*
X168865Y726429D01*
X168837Y726431D01*
X168825Y726434D01*
X168804Y726433D01*
X168704Y726439D01*
X161496Y726439D01*
X161358Y726422D01*
X161220Y726409D01*
X161200Y726402D01*
X161180Y726399D01*
X161051Y726348D01*
X160920Y726301D01*
X160903Y726290D01*
X160885Y726282D01*
X160772Y726201D01*
X160657Y726123D01*
X160644Y726107D01*
X160627Y726096D01*
X160538Y725988D01*
X160447Y725884D01*
X160438Y725866D01*
X160425Y725851D01*
X160365Y725725D01*
X160302Y725601D01*
X160298Y725581D01*
X160289Y725563D01*
X160263Y725426D01*
X160232Y725291D01*
X160233Y725270D01*
X160229Y725251D01*
X160238Y725112D01*
X160242Y724973D01*
X160248Y724953D01*
X160249Y724933D01*
X160292Y724801D01*
X160331Y724667D01*
X160341Y724650D01*
X160347Y724631D01*
X160421Y724513D01*
X160492Y724393D01*
X160511Y724372D01*
X160517Y724362D01*
X160532Y724348D01*
X160582Y724292D01*
X162053Y720740D01*
X162053Y701660D01*
X160583Y698112D01*
X157868Y695397D01*
X154320Y693927D01*
X150480Y693927D01*
X146932Y695397D01*
X144217Y698112D01*
X142747Y701660D01*
X142747Y720740D01*
X144221Y724297D01*
X144287Y724382D01*
X144375Y724489D01*
X144384Y724508D01*
X144396Y724524D01*
X144452Y724652D01*
X144511Y724777D01*
X144515Y724797D01*
X144523Y724816D01*
X144545Y724953D01*
X144571Y725090D01*
X144569Y725110D01*
X144573Y725130D01*
X144560Y725268D01*
X144551Y725407D01*
X144545Y725426D01*
X144543Y725446D01*
X144496Y725577D01*
X144453Y725709D01*
X144442Y725726D01*
X144435Y725746D01*
X144357Y725861D01*
X144283Y725978D01*
X144268Y725992D01*
X144257Y726009D01*
X144152Y726101D01*
X144051Y726196D01*
X144034Y726206D01*
X144018Y726219D01*
X143894Y726283D01*
X143773Y726350D01*
X143753Y726355D01*
X143735Y726364D01*
X143599Y726394D01*
X143465Y726429D01*
X143437Y726431D01*
X143425Y726434D01*
X143404Y726433D01*
X143304Y726439D01*
X136096Y726439D01*
X135958Y726422D01*
X135820Y726409D01*
X135800Y726402D01*
X135780Y726399D01*
X135651Y726348D01*
X135520Y726301D01*
X135503Y726290D01*
X135485Y726282D01*
X135372Y726201D01*
X135257Y726123D01*
X135244Y726107D01*
X135227Y726096D01*
X135138Y725988D01*
X135047Y725884D01*
X135038Y725866D01*
X135025Y725851D01*
X134965Y725725D01*
X134902Y725601D01*
X134898Y725581D01*
X134889Y725563D01*
X134863Y725426D01*
X134832Y725291D01*
X134833Y725270D01*
X134829Y725251D01*
X134838Y725112D01*
X134842Y724973D01*
X134848Y724953D01*
X134849Y724933D01*
X134892Y724801D01*
X134931Y724667D01*
X134941Y724650D01*
X134947Y724631D01*
X135021Y724513D01*
X135092Y724393D01*
X135111Y724372D01*
X135117Y724362D01*
X135132Y724348D01*
X135182Y724292D01*
X136653Y720740D01*
X136653Y701660D01*
X135183Y698112D01*
X132468Y695397D01*
X128920Y693927D01*
X125080Y693927D01*
X121532Y695397D01*
X118817Y698112D01*
X117347Y701660D01*
X117347Y720740D01*
X118821Y724297D01*
X118887Y724382D01*
X118975Y724489D01*
X118984Y724508D01*
X118996Y724524D01*
X119052Y724652D01*
X119111Y724777D01*
X119115Y724797D01*
X119123Y724816D01*
X119145Y724953D01*
X119171Y725090D01*
X119169Y725110D01*
X119173Y725130D01*
X119160Y725268D01*
X119151Y725407D01*
X119145Y725426D01*
X119143Y725446D01*
X119096Y725577D01*
X119053Y725709D01*
X119042Y725726D01*
X119035Y725746D01*
X118957Y725861D01*
X118883Y725978D01*
X118868Y725992D01*
X118857Y726009D01*
X118752Y726101D01*
X118651Y726196D01*
X118634Y726206D01*
X118618Y726219D01*
X118494Y726283D01*
X118373Y726350D01*
X118353Y726355D01*
X118335Y726364D01*
X118199Y726394D01*
X118065Y726429D01*
X118037Y726431D01*
X118025Y726434D01*
X118004Y726433D01*
X117904Y726439D01*
X110696Y726439D01*
X110558Y726422D01*
X110420Y726409D01*
X110400Y726402D01*
X110380Y726399D01*
X110251Y726348D01*
X110120Y726301D01*
X110103Y726290D01*
X110085Y726282D01*
X109972Y726201D01*
X109857Y726123D01*
X109844Y726107D01*
X109827Y726096D01*
X109738Y725988D01*
X109647Y725884D01*
X109638Y725866D01*
X109625Y725851D01*
X109565Y725725D01*
X109502Y725601D01*
X109498Y725581D01*
X109489Y725563D01*
X109463Y725426D01*
X109432Y725291D01*
X109433Y725270D01*
X109429Y725251D01*
X109438Y725112D01*
X109442Y724973D01*
X109448Y724953D01*
X109449Y724933D01*
X109492Y724801D01*
X109531Y724667D01*
X109541Y724650D01*
X109547Y724631D01*
X109621Y724513D01*
X109692Y724393D01*
X109711Y724372D01*
X109717Y724362D01*
X109732Y724348D01*
X109782Y724292D01*
X111253Y720740D01*
X111253Y701660D01*
X109783Y698112D01*
X107068Y695397D01*
X103520Y693927D01*
X99680Y693927D01*
X96132Y695397D01*
X93417Y698112D01*
X91947Y701660D01*
X91947Y720740D01*
X93421Y724297D01*
X93487Y724382D01*
X93575Y724489D01*
X93584Y724508D01*
X93596Y724524D01*
X93652Y724652D01*
X93711Y724777D01*
X93715Y724797D01*
X93723Y724816D01*
X93745Y724953D01*
X93771Y725090D01*
X93769Y725110D01*
X93773Y725130D01*
X93760Y725268D01*
X93751Y725407D01*
X93745Y725426D01*
X93743Y725446D01*
X93696Y725577D01*
X93653Y725709D01*
X93642Y725726D01*
X93635Y725746D01*
X93557Y725861D01*
X93483Y725978D01*
X93468Y725992D01*
X93457Y726009D01*
X93352Y726101D01*
X93251Y726196D01*
X93234Y726206D01*
X93218Y726219D01*
X93094Y726283D01*
X92973Y726350D01*
X92953Y726355D01*
X92935Y726364D01*
X92799Y726394D01*
X92665Y726429D01*
X92637Y726431D01*
X92625Y726434D01*
X92604Y726433D01*
X92504Y726439D01*
X85296Y726439D01*
X85158Y726422D01*
X85020Y726409D01*
X85000Y726402D01*
X84980Y726399D01*
X84851Y726348D01*
X84720Y726301D01*
X84703Y726290D01*
X84685Y726282D01*
X84572Y726201D01*
X84457Y726123D01*
X84444Y726107D01*
X84427Y726096D01*
X84338Y725988D01*
X84247Y725884D01*
X84238Y725866D01*
X84225Y725851D01*
X84165Y725725D01*
X84102Y725601D01*
X84098Y725581D01*
X84089Y725563D01*
X84063Y725426D01*
X84032Y725291D01*
X84033Y725270D01*
X84029Y725251D01*
X84038Y725112D01*
X84042Y724973D01*
X84048Y724953D01*
X84049Y724933D01*
X84092Y724801D01*
X84131Y724667D01*
X84141Y724650D01*
X84147Y724631D01*
X84221Y724513D01*
X84292Y724393D01*
X84311Y724372D01*
X84317Y724362D01*
X84332Y724348D01*
X84382Y724292D01*
X85853Y720740D01*
X85853Y701660D01*
X84383Y698112D01*
X81668Y695397D01*
X78120Y693927D01*
X74280Y693927D01*
X70732Y695397D01*
X68017Y698112D01*
X66547Y701660D01*
X66547Y718314D01*
X66530Y718452D01*
X66517Y718591D01*
X66510Y718610D01*
X66507Y718630D01*
X66456Y718759D01*
X66409Y718890D01*
X66398Y718907D01*
X66390Y718925D01*
X66309Y719038D01*
X66231Y719153D01*
X66215Y719166D01*
X66204Y719183D01*
X66096Y719272D01*
X65992Y719363D01*
X65974Y719373D01*
X65959Y719386D01*
X65833Y719445D01*
X65709Y719508D01*
X65689Y719513D01*
X65671Y719521D01*
X65535Y719547D01*
X65399Y719578D01*
X65378Y719577D01*
X65359Y719581D01*
X65220Y719572D01*
X65081Y719568D01*
X65061Y719562D01*
X65041Y719561D01*
X64909Y719518D01*
X64775Y719480D01*
X64758Y719469D01*
X64739Y719463D01*
X64621Y719389D01*
X64501Y719318D01*
X64480Y719300D01*
X64470Y719293D01*
X64456Y719278D01*
X64381Y719212D01*
X60824Y715656D01*
X60764Y715577D01*
X60696Y715505D01*
X60667Y715452D01*
X60630Y715404D01*
X60590Y715313D01*
X60542Y715227D01*
X60527Y715168D01*
X60503Y715113D01*
X60488Y715015D01*
X60463Y714919D01*
X60457Y714819D01*
X60453Y714798D01*
X60455Y714786D01*
X60453Y714758D01*
X60453Y701660D01*
X58983Y698112D01*
X56268Y695397D01*
X52720Y693927D01*
X48880Y693927D01*
G37*
%LPD*%
%LPC*%
G36*
X54460Y23892D02*
X54460Y23892D01*
X43187Y28316D01*
X33719Y35867D01*
X26897Y45873D01*
X23327Y57445D01*
X23327Y69555D01*
X26897Y81127D01*
X33719Y91133D01*
X43187Y98683D01*
X54460Y103108D01*
X66536Y104013D01*
X78343Y101318D01*
X88830Y95263D01*
X97067Y86386D01*
X102322Y75475D01*
X104126Y63500D01*
X102322Y51525D01*
X97067Y40614D01*
X88830Y31737D01*
X78343Y25682D01*
X66536Y22987D01*
X54460Y23892D01*
G37*
%LPD*%
%LPC*%
G36*
X556110Y525542D02*
X556110Y525542D01*
X544837Y529967D01*
X535369Y537517D01*
X528547Y547523D01*
X524977Y559095D01*
X524977Y571205D01*
X528547Y582777D01*
X535369Y592783D01*
X544837Y600333D01*
X556110Y604758D01*
X568186Y605663D01*
X579993Y602968D01*
X590480Y596913D01*
X598717Y588036D01*
X603972Y577125D01*
X605776Y565150D01*
X603972Y553175D01*
X598717Y542264D01*
X590480Y533387D01*
X579993Y527332D01*
X568186Y524637D01*
X556110Y525542D01*
G37*
%LPD*%
%LPC*%
G36*
X297364Y241172D02*
X297364Y241172D01*
X295356Y242004D01*
X293820Y243540D01*
X293306Y244782D01*
X293246Y244885D01*
X293194Y244992D01*
X293168Y245023D01*
X293148Y245058D01*
X293065Y245144D01*
X292988Y245234D01*
X292955Y245257D01*
X292927Y245286D01*
X292825Y245349D01*
X292728Y245417D01*
X292690Y245431D01*
X292656Y245453D01*
X292542Y245488D01*
X292430Y245530D01*
X292390Y245534D01*
X292352Y245546D01*
X292233Y245552D01*
X292114Y245565D01*
X292074Y245559D01*
X292034Y245561D01*
X291917Y245537D01*
X291800Y245521D01*
X291743Y245501D01*
X291723Y245497D01*
X291704Y245488D01*
X291647Y245469D01*
X288940Y244347D01*
X269860Y244347D01*
X266312Y245817D01*
X263597Y248532D01*
X262127Y252080D01*
X262127Y255920D01*
X263597Y259468D01*
X266312Y262183D01*
X269860Y263653D01*
X288940Y263653D01*
X292497Y262179D01*
X292582Y262113D01*
X292689Y262025D01*
X292708Y262016D01*
X292724Y262004D01*
X292852Y261948D01*
X292977Y261889D01*
X292997Y261885D01*
X293016Y261877D01*
X293153Y261855D01*
X293290Y261829D01*
X293310Y261831D01*
X293330Y261827D01*
X293468Y261840D01*
X293607Y261849D01*
X293626Y261855D01*
X293646Y261857D01*
X293777Y261904D01*
X293909Y261947D01*
X293926Y261958D01*
X293946Y261965D01*
X294061Y262043D01*
X294178Y262117D01*
X294192Y262132D01*
X294209Y262143D01*
X294301Y262248D01*
X294396Y262349D01*
X294406Y262366D01*
X294419Y262382D01*
X294483Y262506D01*
X294550Y262627D01*
X294555Y262647D01*
X294564Y262665D01*
X294594Y262801D01*
X294629Y262935D01*
X294631Y262963D01*
X294634Y262975D01*
X294633Y262996D01*
X294639Y263096D01*
X294639Y270304D01*
X294622Y270442D01*
X294609Y270580D01*
X294602Y270600D01*
X294599Y270620D01*
X294548Y270749D01*
X294501Y270880D01*
X294490Y270897D01*
X294482Y270915D01*
X294401Y271028D01*
X294323Y271143D01*
X294307Y271156D01*
X294296Y271173D01*
X294188Y271262D01*
X294084Y271353D01*
X294066Y271362D01*
X294051Y271375D01*
X293925Y271435D01*
X293801Y271498D01*
X293781Y271502D01*
X293763Y271511D01*
X293626Y271537D01*
X293491Y271568D01*
X293470Y271567D01*
X293451Y271571D01*
X293312Y271562D01*
X293173Y271558D01*
X293153Y271552D01*
X293133Y271551D01*
X293001Y271508D01*
X292867Y271469D01*
X292850Y271459D01*
X292831Y271453D01*
X292713Y271379D01*
X292593Y271308D01*
X292572Y271289D01*
X292562Y271283D01*
X292548Y271268D01*
X292492Y271218D01*
X288940Y269747D01*
X269860Y269747D01*
X266312Y271217D01*
X263597Y273932D01*
X262127Y277480D01*
X262127Y281320D01*
X263597Y284868D01*
X266312Y287583D01*
X269860Y289053D01*
X286514Y289053D01*
X286652Y289070D01*
X286791Y289083D01*
X286810Y289090D01*
X286830Y289093D01*
X286959Y289144D01*
X287090Y289191D01*
X287107Y289202D01*
X287125Y289210D01*
X287238Y289291D01*
X287353Y289369D01*
X287366Y289385D01*
X287383Y289396D01*
X287472Y289504D01*
X287563Y289608D01*
X287573Y289626D01*
X287586Y289641D01*
X287645Y289767D01*
X287708Y289891D01*
X287713Y289911D01*
X287721Y289929D01*
X287747Y290065D01*
X287778Y290201D01*
X287777Y290222D01*
X287781Y290241D01*
X287772Y290380D01*
X287768Y290519D01*
X287762Y290539D01*
X287761Y290559D01*
X287718Y290691D01*
X287680Y290825D01*
X287669Y290842D01*
X287663Y290861D01*
X287589Y290979D01*
X287518Y291099D01*
X287500Y291120D01*
X287493Y291130D01*
X287478Y291144D01*
X287412Y291219D01*
X283856Y294776D01*
X283777Y294836D01*
X283705Y294904D01*
X283652Y294933D01*
X283604Y294970D01*
X283513Y295010D01*
X283427Y295058D01*
X283368Y295073D01*
X283313Y295097D01*
X283215Y295112D01*
X283119Y295137D01*
X283019Y295143D01*
X282998Y295147D01*
X282986Y295145D01*
X282958Y295147D01*
X269860Y295147D01*
X266312Y296617D01*
X263597Y299332D01*
X262127Y302880D01*
X262127Y306720D01*
X263597Y310268D01*
X266312Y312983D01*
X269860Y314453D01*
X288940Y314453D01*
X292488Y312983D01*
X294854Y310617D01*
X294909Y310574D01*
X294958Y310524D01*
X295034Y310477D01*
X295106Y310422D01*
X295170Y310394D01*
X295229Y310358D01*
X295315Y310331D01*
X295397Y310295D01*
X295467Y310284D01*
X295533Y310264D01*
X295623Y310260D01*
X295712Y310246D01*
X295781Y310252D01*
X295851Y310249D01*
X295938Y310267D01*
X296028Y310275D01*
X296094Y310299D01*
X296162Y310313D01*
X296243Y310353D01*
X296327Y310383D01*
X296385Y310422D01*
X296448Y310453D01*
X296516Y310511D01*
X296591Y310562D01*
X296637Y310614D01*
X296690Y310659D01*
X296741Y310733D01*
X296801Y310800D01*
X296833Y310862D01*
X296873Y310919D01*
X296905Y311003D01*
X296946Y311083D01*
X296961Y311151D01*
X296986Y311217D01*
X296996Y311306D01*
X297015Y311394D01*
X297013Y311463D01*
X297021Y311533D01*
X297008Y311622D01*
X297006Y311711D01*
X296986Y311778D01*
X296976Y311848D01*
X296924Y312000D01*
X296587Y312815D01*
X296587Y314988D01*
X297418Y316995D01*
X298955Y318532D01*
X300962Y319363D01*
X303135Y319363D01*
X305142Y318532D01*
X306679Y316995D01*
X307510Y314988D01*
X307510Y312815D01*
X306679Y310808D01*
X305469Y309598D01*
X305408Y309520D01*
X305340Y309448D01*
X305311Y309395D01*
X305274Y309347D01*
X305235Y309256D01*
X305187Y309169D01*
X305172Y309110D01*
X305148Y309055D01*
X305132Y308957D01*
X305107Y308861D01*
X305101Y308761D01*
X305098Y308741D01*
X305099Y308728D01*
X305097Y308700D01*
X305097Y290945D01*
X305110Y290847D01*
X305113Y290747D01*
X305129Y290689D01*
X305137Y290629D01*
X305174Y290537D01*
X305201Y290442D01*
X305232Y290390D01*
X305254Y290333D01*
X305312Y290253D01*
X305363Y290168D01*
X305429Y290093D01*
X305441Y290076D01*
X305450Y290068D01*
X305469Y290047D01*
X306579Y288937D01*
X306579Y256043D01*
X306591Y255944D01*
X306594Y255845D01*
X306611Y255787D01*
X306619Y255727D01*
X306655Y255635D01*
X306683Y255540D01*
X306713Y255488D01*
X306736Y255431D01*
X306794Y255351D01*
X306844Y255266D01*
X306910Y255191D01*
X306922Y255174D01*
X306932Y255166D01*
X306950Y255145D01*
X309628Y252467D01*
X309706Y252407D01*
X309778Y252339D01*
X309831Y252310D01*
X309879Y252273D01*
X309970Y252233D01*
X310057Y252185D01*
X310116Y252170D01*
X310171Y252146D01*
X310269Y252131D01*
X310365Y252106D01*
X310465Y252100D01*
X310485Y252096D01*
X310498Y252098D01*
X310526Y252096D01*
X312236Y252096D01*
X314244Y251264D01*
X315780Y249728D01*
X316612Y247720D01*
X316612Y245548D01*
X315780Y243540D01*
X314244Y242004D01*
X312236Y241172D01*
X310064Y241172D01*
X308056Y242004D01*
X306520Y243540D01*
X305973Y244861D01*
X305904Y244982D01*
X305839Y245105D01*
X305825Y245120D01*
X305815Y245137D01*
X305718Y245238D01*
X305625Y245340D01*
X305608Y245351D01*
X305594Y245366D01*
X305475Y245439D01*
X305359Y245515D01*
X305340Y245521D01*
X305323Y245532D01*
X305190Y245573D01*
X305058Y245618D01*
X305038Y245620D01*
X305019Y245626D01*
X304880Y245632D01*
X304741Y245643D01*
X304721Y245640D01*
X304701Y245641D01*
X304565Y245613D01*
X304428Y245589D01*
X304409Y245581D01*
X304390Y245576D01*
X304264Y245515D01*
X304138Y245458D01*
X304122Y245446D01*
X304104Y245437D01*
X303998Y245346D01*
X303890Y245260D01*
X303877Y245244D01*
X303862Y245230D01*
X303782Y245116D01*
X303698Y245006D01*
X303686Y244980D01*
X303679Y244970D01*
X303672Y244951D01*
X303627Y244861D01*
X303080Y243540D01*
X301544Y242004D01*
X299536Y241172D01*
X297364Y241172D01*
G37*
%LPD*%
%LPC*%
G36*
X164014Y445388D02*
X164014Y445388D01*
X162006Y446220D01*
X160470Y447756D01*
X159638Y449764D01*
X159638Y451936D01*
X160284Y453497D01*
X160321Y453631D01*
X160362Y453763D01*
X160363Y453784D01*
X160368Y453803D01*
X160371Y453943D01*
X160377Y454081D01*
X160373Y454101D01*
X160373Y454121D01*
X160341Y454257D01*
X160313Y454393D01*
X160304Y454411D01*
X160299Y454430D01*
X160234Y454553D01*
X160173Y454678D01*
X160160Y454694D01*
X160151Y454712D01*
X160057Y454814D01*
X159967Y454920D01*
X159950Y454932D01*
X159937Y454947D01*
X159821Y455023D01*
X159707Y455103D01*
X159688Y455111D01*
X159671Y455122D01*
X159540Y455167D01*
X159409Y455216D01*
X159389Y455218D01*
X159370Y455225D01*
X159232Y455236D01*
X159093Y455251D01*
X159073Y455249D01*
X159053Y455250D01*
X158916Y455226D01*
X158778Y455207D01*
X158752Y455198D01*
X158740Y455196D01*
X158721Y455187D01*
X158626Y455155D01*
X155590Y453897D01*
X136510Y453897D01*
X132962Y455367D01*
X130247Y458082D01*
X128777Y461630D01*
X128777Y465470D01*
X130247Y469018D01*
X132962Y471733D01*
X136510Y473203D01*
X155590Y473203D01*
X159147Y471729D01*
X159232Y471663D01*
X159339Y471575D01*
X159358Y471566D01*
X159374Y471554D01*
X159502Y471498D01*
X159627Y471439D01*
X159647Y471435D01*
X159666Y471427D01*
X159803Y471405D01*
X159940Y471379D01*
X159960Y471381D01*
X159980Y471377D01*
X160118Y471390D01*
X160257Y471399D01*
X160276Y471405D01*
X160296Y471407D01*
X160427Y471454D01*
X160559Y471497D01*
X160576Y471508D01*
X160596Y471515D01*
X160711Y471593D01*
X160828Y471667D01*
X160842Y471682D01*
X160859Y471693D01*
X160951Y471798D01*
X161046Y471899D01*
X161056Y471916D01*
X161069Y471932D01*
X161133Y472056D01*
X161200Y472177D01*
X161205Y472197D01*
X161214Y472215D01*
X161244Y472351D01*
X161279Y472485D01*
X161281Y472513D01*
X161284Y472525D01*
X161283Y472546D01*
X161289Y472646D01*
X161289Y479854D01*
X161272Y479992D01*
X161259Y480130D01*
X161252Y480150D01*
X161249Y480170D01*
X161198Y480299D01*
X161151Y480430D01*
X161140Y480447D01*
X161132Y480465D01*
X161051Y480578D01*
X160973Y480693D01*
X160957Y480706D01*
X160946Y480723D01*
X160838Y480812D01*
X160734Y480903D01*
X160716Y480912D01*
X160701Y480925D01*
X160575Y480985D01*
X160451Y481048D01*
X160431Y481052D01*
X160413Y481061D01*
X160276Y481087D01*
X160141Y481118D01*
X160120Y481117D01*
X160101Y481121D01*
X159962Y481112D01*
X159823Y481108D01*
X159803Y481102D01*
X159783Y481101D01*
X159651Y481058D01*
X159517Y481019D01*
X159500Y481009D01*
X159481Y481003D01*
X159363Y480929D01*
X159243Y480858D01*
X159222Y480839D01*
X159212Y480833D01*
X159198Y480818D01*
X159142Y480768D01*
X155590Y479297D01*
X136510Y479297D01*
X132962Y480767D01*
X130247Y483482D01*
X128777Y487030D01*
X128777Y490870D01*
X130247Y494418D01*
X132962Y497133D01*
X136510Y498603D01*
X153164Y498603D01*
X153302Y498620D01*
X153441Y498633D01*
X153460Y498640D01*
X153480Y498643D01*
X153609Y498694D01*
X153740Y498741D01*
X153757Y498752D01*
X153775Y498760D01*
X153888Y498841D01*
X154003Y498919D01*
X154016Y498935D01*
X154033Y498946D01*
X154122Y499054D01*
X154213Y499158D01*
X154223Y499176D01*
X154236Y499191D01*
X154295Y499317D01*
X154358Y499441D01*
X154363Y499461D01*
X154371Y499479D01*
X154397Y499615D01*
X154428Y499751D01*
X154427Y499772D01*
X154431Y499791D01*
X154422Y499930D01*
X154418Y500069D01*
X154412Y500089D01*
X154411Y500109D01*
X154368Y500241D01*
X154330Y500375D01*
X154319Y500392D01*
X154313Y500411D01*
X154239Y500529D01*
X154168Y500649D01*
X154150Y500670D01*
X154143Y500680D01*
X154128Y500694D01*
X154062Y500769D01*
X150506Y504326D01*
X150427Y504386D01*
X150355Y504454D01*
X150302Y504483D01*
X150254Y504520D01*
X150163Y504560D01*
X150077Y504608D01*
X150018Y504623D01*
X149963Y504647D01*
X149865Y504662D01*
X149769Y504687D01*
X149669Y504693D01*
X149648Y504697D01*
X149636Y504695D01*
X149608Y504697D01*
X136510Y504697D01*
X132962Y506167D01*
X130247Y508882D01*
X128777Y512430D01*
X128777Y516270D01*
X130247Y519818D01*
X132962Y522533D01*
X136510Y524003D01*
X155590Y524003D01*
X159138Y522533D01*
X161853Y519818D01*
X163323Y516270D01*
X163323Y512430D01*
X161853Y508882D01*
X160367Y507396D01*
X160294Y507302D01*
X160216Y507213D01*
X160197Y507177D01*
X160172Y507145D01*
X160125Y507036D01*
X160071Y506930D01*
X160062Y506890D01*
X160046Y506853D01*
X160027Y506735D01*
X160001Y506620D01*
X160003Y506579D01*
X159996Y506539D01*
X160007Y506421D01*
X160011Y506302D01*
X160022Y506263D01*
X160026Y506223D01*
X160066Y506110D01*
X160099Y505996D01*
X160120Y505961D01*
X160134Y505923D01*
X160201Y505825D01*
X160261Y505722D01*
X160301Y505677D01*
X160312Y505660D01*
X160328Y505647D01*
X160367Y505601D01*
X166486Y499482D01*
X169165Y496804D01*
X169165Y457015D01*
X169127Y456948D01*
X169112Y456889D01*
X169088Y456833D01*
X169073Y456735D01*
X169048Y456640D01*
X169042Y456540D01*
X169038Y456519D01*
X169040Y456507D01*
X169038Y456479D01*
X169038Y455162D01*
X169050Y455064D01*
X169053Y454965D01*
X169070Y454907D01*
X169078Y454847D01*
X169114Y454754D01*
X169142Y454659D01*
X169172Y454607D01*
X169195Y454551D01*
X169253Y454471D01*
X169303Y454385D01*
X169369Y454310D01*
X169381Y454294D01*
X169391Y454286D01*
X169409Y454265D01*
X169730Y453944D01*
X170562Y451936D01*
X170562Y449764D01*
X169730Y447756D01*
X168194Y446220D01*
X166186Y445388D01*
X164014Y445388D01*
G37*
%LPD*%
%LPC*%
G36*
X291014Y445388D02*
X291014Y445388D01*
X289006Y446220D01*
X287470Y447756D01*
X286638Y449764D01*
X286638Y451936D01*
X287284Y453497D01*
X287321Y453631D01*
X287362Y453763D01*
X287363Y453784D01*
X287368Y453803D01*
X287371Y453943D01*
X287377Y454081D01*
X287373Y454101D01*
X287373Y454121D01*
X287341Y454257D01*
X287313Y454393D01*
X287304Y454411D01*
X287299Y454430D01*
X287234Y454553D01*
X287173Y454678D01*
X287160Y454694D01*
X287151Y454712D01*
X287057Y454814D01*
X286967Y454920D01*
X286950Y454932D01*
X286937Y454947D01*
X286821Y455023D01*
X286707Y455103D01*
X286688Y455111D01*
X286671Y455122D01*
X286540Y455167D01*
X286409Y455216D01*
X286389Y455218D01*
X286370Y455225D01*
X286232Y455236D01*
X286093Y455251D01*
X286073Y455249D01*
X286053Y455250D01*
X285916Y455226D01*
X285778Y455207D01*
X285752Y455198D01*
X285740Y455196D01*
X285721Y455187D01*
X285626Y455155D01*
X282590Y453897D01*
X263510Y453897D01*
X259962Y455367D01*
X257247Y458082D01*
X255777Y461630D01*
X255777Y465470D01*
X257247Y469018D01*
X259962Y471733D01*
X263510Y473203D01*
X282590Y473203D01*
X286147Y471729D01*
X286232Y471663D01*
X286339Y471575D01*
X286358Y471566D01*
X286374Y471554D01*
X286502Y471498D01*
X286627Y471439D01*
X286647Y471435D01*
X286666Y471427D01*
X286803Y471405D01*
X286940Y471379D01*
X286960Y471381D01*
X286980Y471377D01*
X287118Y471390D01*
X287257Y471399D01*
X287276Y471405D01*
X287296Y471407D01*
X287427Y471454D01*
X287559Y471497D01*
X287576Y471508D01*
X287596Y471515D01*
X287711Y471593D01*
X287828Y471667D01*
X287842Y471682D01*
X287859Y471693D01*
X287951Y471798D01*
X288046Y471899D01*
X288056Y471916D01*
X288069Y471932D01*
X288133Y472056D01*
X288200Y472177D01*
X288205Y472197D01*
X288214Y472215D01*
X288244Y472351D01*
X288279Y472485D01*
X288281Y472513D01*
X288284Y472525D01*
X288283Y472546D01*
X288289Y472646D01*
X288289Y479854D01*
X288272Y479992D01*
X288259Y480130D01*
X288252Y480150D01*
X288249Y480170D01*
X288198Y480299D01*
X288151Y480430D01*
X288140Y480447D01*
X288132Y480465D01*
X288051Y480578D01*
X287973Y480693D01*
X287957Y480706D01*
X287946Y480723D01*
X287838Y480812D01*
X287734Y480903D01*
X287716Y480912D01*
X287701Y480925D01*
X287575Y480985D01*
X287451Y481048D01*
X287431Y481052D01*
X287413Y481061D01*
X287276Y481087D01*
X287141Y481118D01*
X287120Y481117D01*
X287101Y481121D01*
X286962Y481112D01*
X286823Y481108D01*
X286803Y481102D01*
X286783Y481101D01*
X286651Y481058D01*
X286517Y481019D01*
X286500Y481009D01*
X286481Y481003D01*
X286363Y480929D01*
X286243Y480858D01*
X286222Y480839D01*
X286212Y480833D01*
X286198Y480818D01*
X286142Y480768D01*
X282590Y479297D01*
X263510Y479297D01*
X259962Y480767D01*
X257247Y483482D01*
X255777Y487030D01*
X255777Y490870D01*
X257247Y494418D01*
X259962Y497133D01*
X263510Y498603D01*
X278728Y498603D01*
X278866Y498620D01*
X279005Y498633D01*
X279024Y498640D01*
X279044Y498643D01*
X279173Y498694D01*
X279304Y498741D01*
X279321Y498752D01*
X279340Y498760D01*
X279452Y498841D01*
X279567Y498919D01*
X279581Y498935D01*
X279597Y498946D01*
X279686Y499054D01*
X279778Y499158D01*
X279787Y499176D01*
X279800Y499191D01*
X279859Y499317D01*
X279922Y499441D01*
X279927Y499461D01*
X279935Y499479D01*
X279961Y499615D01*
X279992Y499751D01*
X279991Y499772D01*
X279995Y499791D01*
X279986Y499930D01*
X279982Y500069D01*
X279977Y500089D01*
X279975Y500109D01*
X279932Y500241D01*
X279894Y500375D01*
X279884Y500392D01*
X279877Y500411D01*
X279803Y500529D01*
X279732Y500649D01*
X279714Y500670D01*
X279707Y500680D01*
X279692Y500694D01*
X279626Y500769D01*
X276070Y504326D01*
X275992Y504386D01*
X275919Y504454D01*
X275866Y504483D01*
X275819Y504520D01*
X275728Y504560D01*
X275641Y504608D01*
X275582Y504623D01*
X275527Y504647D01*
X275429Y504662D01*
X275333Y504687D01*
X275233Y504693D01*
X275213Y504697D01*
X275200Y504695D01*
X275172Y504697D01*
X263510Y504697D01*
X259962Y506167D01*
X257247Y508882D01*
X255777Y512430D01*
X255777Y516270D01*
X257247Y519818D01*
X259962Y522533D01*
X263510Y524003D01*
X282590Y524003D01*
X286138Y522533D01*
X288853Y519818D01*
X290323Y516270D01*
X290323Y512430D01*
X288853Y508882D01*
X286649Y506678D01*
X286576Y506584D01*
X286498Y506495D01*
X286479Y506459D01*
X286455Y506427D01*
X286407Y506318D01*
X286353Y506212D01*
X286344Y506173D01*
X286328Y506135D01*
X286309Y506018D01*
X286283Y505902D01*
X286285Y505861D01*
X286278Y505821D01*
X286289Y505703D01*
X286293Y505584D01*
X286304Y505545D01*
X286308Y505505D01*
X286348Y505392D01*
X286382Y505278D01*
X286402Y505243D01*
X286416Y505205D01*
X286483Y505107D01*
X286543Y505004D01*
X286583Y504959D01*
X286594Y504942D01*
X286610Y504929D01*
X286649Y504883D01*
X293486Y498047D01*
X296165Y495368D01*
X296165Y457015D01*
X296127Y456948D01*
X296112Y456889D01*
X296088Y456833D01*
X296073Y456735D01*
X296048Y456640D01*
X296042Y456540D01*
X296038Y456519D01*
X296040Y456507D01*
X296038Y456479D01*
X296038Y455162D01*
X296050Y455064D01*
X296053Y454965D01*
X296070Y454907D01*
X296078Y454847D01*
X296114Y454754D01*
X296142Y454659D01*
X296172Y454607D01*
X296195Y454551D01*
X296253Y454471D01*
X296303Y454385D01*
X296369Y454310D01*
X296381Y454294D01*
X296391Y454286D01*
X296409Y454265D01*
X296730Y453944D01*
X297562Y451936D01*
X297562Y449764D01*
X296730Y447756D01*
X295194Y446220D01*
X293186Y445388D01*
X291014Y445388D01*
G37*
%LPD*%
%LPC*%
G36*
X164014Y241172D02*
X164014Y241172D01*
X162006Y242004D01*
X160470Y243540D01*
X159956Y244782D01*
X159897Y244885D01*
X159844Y244992D01*
X159818Y245023D01*
X159798Y245058D01*
X159715Y245143D01*
X159638Y245234D01*
X159605Y245257D01*
X159577Y245286D01*
X159475Y245348D01*
X159378Y245417D01*
X159340Y245431D01*
X159306Y245453D01*
X159192Y245488D01*
X159080Y245530D01*
X159040Y245534D01*
X159002Y245546D01*
X158883Y245552D01*
X158764Y245565D01*
X158724Y245559D01*
X158684Y245561D01*
X158567Y245537D01*
X158450Y245521D01*
X158393Y245501D01*
X158373Y245497D01*
X158354Y245488D01*
X158297Y245469D01*
X155590Y244347D01*
X136510Y244347D01*
X132962Y245817D01*
X130247Y248532D01*
X128777Y252080D01*
X128777Y255920D01*
X130247Y259468D01*
X132962Y262183D01*
X136510Y263653D01*
X155590Y263653D01*
X159147Y262179D01*
X159232Y262113D01*
X159339Y262025D01*
X159358Y262016D01*
X159374Y262004D01*
X159502Y261948D01*
X159627Y261889D01*
X159647Y261885D01*
X159666Y261877D01*
X159803Y261855D01*
X159940Y261829D01*
X159960Y261831D01*
X159980Y261827D01*
X160118Y261840D01*
X160257Y261849D01*
X160276Y261855D01*
X160296Y261857D01*
X160427Y261904D01*
X160559Y261947D01*
X160576Y261958D01*
X160596Y261965D01*
X160711Y262043D01*
X160828Y262117D01*
X160842Y262132D01*
X160859Y262143D01*
X160951Y262248D01*
X161046Y262349D01*
X161056Y262366D01*
X161069Y262382D01*
X161133Y262506D01*
X161200Y262627D01*
X161205Y262647D01*
X161214Y262665D01*
X161244Y262801D01*
X161279Y262935D01*
X161281Y262963D01*
X161284Y262975D01*
X161283Y262996D01*
X161289Y263096D01*
X161289Y270304D01*
X161272Y270442D01*
X161259Y270580D01*
X161252Y270600D01*
X161249Y270620D01*
X161198Y270749D01*
X161151Y270880D01*
X161140Y270897D01*
X161132Y270915D01*
X161051Y271028D01*
X160973Y271143D01*
X160957Y271156D01*
X160946Y271173D01*
X160838Y271262D01*
X160734Y271353D01*
X160716Y271362D01*
X160701Y271375D01*
X160575Y271435D01*
X160451Y271498D01*
X160431Y271502D01*
X160413Y271511D01*
X160276Y271537D01*
X160141Y271568D01*
X160120Y271567D01*
X160101Y271571D01*
X159962Y271562D01*
X159823Y271558D01*
X159803Y271552D01*
X159783Y271551D01*
X159651Y271508D01*
X159517Y271469D01*
X159500Y271459D01*
X159481Y271453D01*
X159363Y271379D01*
X159243Y271308D01*
X159222Y271289D01*
X159212Y271283D01*
X159198Y271268D01*
X159142Y271218D01*
X155590Y269747D01*
X136510Y269747D01*
X132962Y271217D01*
X130247Y273932D01*
X128777Y277480D01*
X128777Y281320D01*
X130247Y284868D01*
X132962Y287583D01*
X136510Y289053D01*
X153164Y289053D01*
X153302Y289070D01*
X153441Y289083D01*
X153460Y289090D01*
X153480Y289093D01*
X153609Y289144D01*
X153740Y289191D01*
X153757Y289202D01*
X153775Y289210D01*
X153888Y289291D01*
X154003Y289369D01*
X154016Y289385D01*
X154033Y289396D01*
X154122Y289504D01*
X154213Y289608D01*
X154223Y289626D01*
X154236Y289641D01*
X154295Y289767D01*
X154358Y289891D01*
X154363Y289911D01*
X154371Y289929D01*
X154397Y290065D01*
X154428Y290201D01*
X154427Y290222D01*
X154431Y290241D01*
X154422Y290380D01*
X154418Y290519D01*
X154412Y290539D01*
X154411Y290559D01*
X154368Y290691D01*
X154330Y290825D01*
X154319Y290842D01*
X154313Y290861D01*
X154239Y290979D01*
X154168Y291099D01*
X154150Y291120D01*
X154143Y291130D01*
X154128Y291144D01*
X154062Y291219D01*
X150506Y294776D01*
X150427Y294836D01*
X150355Y294904D01*
X150302Y294933D01*
X150254Y294970D01*
X150163Y295010D01*
X150077Y295058D01*
X150018Y295073D01*
X149963Y295097D01*
X149865Y295112D01*
X149769Y295137D01*
X149669Y295143D01*
X149648Y295147D01*
X149636Y295145D01*
X149608Y295147D01*
X136510Y295147D01*
X132962Y296617D01*
X130247Y299332D01*
X128777Y302880D01*
X128777Y306720D01*
X130247Y310268D01*
X132962Y312983D01*
X136510Y314453D01*
X155590Y314453D01*
X159138Y312983D01*
X161853Y310268D01*
X163323Y306720D01*
X163323Y302880D01*
X161853Y299332D01*
X160367Y297846D01*
X160294Y297752D01*
X160216Y297663D01*
X160197Y297627D01*
X160172Y297595D01*
X160125Y297486D01*
X160071Y297380D01*
X160062Y297340D01*
X160046Y297303D01*
X160027Y297185D01*
X160001Y297070D01*
X160003Y297029D01*
X159996Y296989D01*
X160007Y296871D01*
X160011Y296752D01*
X160022Y296713D01*
X160026Y296673D01*
X160066Y296560D01*
X160099Y296446D01*
X160120Y296411D01*
X160134Y296373D01*
X160201Y296275D01*
X160261Y296172D01*
X160301Y296127D01*
X160312Y296110D01*
X160328Y296097D01*
X160367Y296051D01*
X166486Y289932D01*
X169165Y287254D01*
X169165Y250819D01*
X169177Y250721D01*
X169180Y250622D01*
X169197Y250564D01*
X169205Y250504D01*
X169241Y250411D01*
X169269Y250316D01*
X169299Y250264D01*
X169322Y250208D01*
X169380Y250128D01*
X169430Y250042D01*
X169496Y249967D01*
X169508Y249951D01*
X169518Y249943D01*
X169536Y249922D01*
X169730Y249728D01*
X170562Y247720D01*
X170562Y245548D01*
X169730Y243540D01*
X168194Y242004D01*
X166186Y241172D01*
X164014Y241172D01*
G37*
%LPD*%
%LPC*%
G36*
X430714Y527938D02*
X430714Y527938D01*
X428706Y528770D01*
X427170Y530306D01*
X426338Y532314D01*
X426338Y534024D01*
X426326Y534123D01*
X426323Y534222D01*
X426306Y534280D01*
X426298Y534340D01*
X426262Y534432D01*
X426234Y534527D01*
X426204Y534579D01*
X426181Y534636D01*
X426123Y534716D01*
X426073Y534801D01*
X426007Y534876D01*
X425995Y534893D01*
X425985Y534901D01*
X425967Y534922D01*
X424559Y536330D01*
X424481Y536390D01*
X424409Y536458D01*
X424356Y536487D01*
X424308Y536524D01*
X424217Y536564D01*
X424130Y536612D01*
X424071Y536627D01*
X424016Y536651D01*
X423918Y536666D01*
X423822Y536691D01*
X423722Y536697D01*
X423702Y536701D01*
X423689Y536699D01*
X423661Y536701D01*
X417703Y536701D01*
X417674Y536698D01*
X417645Y536700D01*
X417516Y536678D01*
X417388Y536661D01*
X417360Y536651D01*
X417331Y536646D01*
X417213Y536592D01*
X417092Y536544D01*
X417068Y536527D01*
X417041Y536515D01*
X416940Y536434D01*
X416835Y536358D01*
X416816Y536335D01*
X416793Y536316D01*
X416715Y536213D01*
X416632Y536113D01*
X416619Y536086D01*
X416602Y536062D01*
X416531Y535918D01*
X415853Y534282D01*
X413138Y531567D01*
X409590Y530097D01*
X390510Y530097D01*
X386962Y531567D01*
X384247Y534282D01*
X382777Y537830D01*
X382777Y541670D01*
X384247Y545218D01*
X386962Y547933D01*
X390510Y549403D01*
X409590Y549403D01*
X413138Y547933D01*
X415853Y545218D01*
X416531Y543582D01*
X416545Y543557D01*
X416554Y543529D01*
X416624Y543419D01*
X416688Y543306D01*
X416709Y543285D01*
X416725Y543260D01*
X416819Y543171D01*
X416909Y543078D01*
X416935Y543062D01*
X416956Y543042D01*
X417070Y542979D01*
X417181Y542911D01*
X417209Y542903D01*
X417235Y542888D01*
X417360Y542856D01*
X417485Y542818D01*
X417514Y542816D01*
X417543Y542809D01*
X417703Y542799D01*
X426713Y542799D01*
X430278Y539233D01*
X430356Y539173D01*
X430428Y539105D01*
X430481Y539076D01*
X430529Y539039D01*
X430620Y538999D01*
X430707Y538951D01*
X430766Y538936D01*
X430821Y538912D01*
X430919Y538897D01*
X431015Y538872D01*
X431115Y538866D01*
X431135Y538862D01*
X431148Y538864D01*
X431176Y538862D01*
X432886Y538862D01*
X434894Y538030D01*
X436430Y536494D01*
X437262Y534486D01*
X437262Y532314D01*
X436430Y530306D01*
X434894Y528770D01*
X432886Y527938D01*
X430714Y527938D01*
G37*
%LPD*%
%LPC*%
G36*
X425507Y318388D02*
X425507Y318388D01*
X423499Y319220D01*
X421963Y320756D01*
X421131Y322764D01*
X421131Y324474D01*
X421119Y324573D01*
X421116Y324672D01*
X421099Y324730D01*
X421091Y324790D01*
X421055Y324882D01*
X421027Y324977D01*
X420997Y325029D01*
X420974Y325086D01*
X420916Y325166D01*
X420866Y325251D01*
X420800Y325326D01*
X420788Y325343D01*
X420778Y325351D01*
X420760Y325372D01*
X419352Y326780D01*
X419274Y326840D01*
X419202Y326908D01*
X419149Y326937D01*
X419101Y326974D01*
X419010Y327014D01*
X418923Y327062D01*
X418864Y327077D01*
X418809Y327101D01*
X418711Y327116D01*
X418615Y327141D01*
X418515Y327147D01*
X418495Y327151D01*
X418482Y327149D01*
X418454Y327151D01*
X417703Y327151D01*
X417674Y327148D01*
X417645Y327150D01*
X417516Y327128D01*
X417388Y327111D01*
X417360Y327101D01*
X417331Y327096D01*
X417213Y327042D01*
X417092Y326994D01*
X417068Y326977D01*
X417041Y326965D01*
X416940Y326884D01*
X416835Y326808D01*
X416816Y326785D01*
X416793Y326766D01*
X416715Y326663D01*
X416632Y326563D01*
X416619Y326536D01*
X416602Y326512D01*
X416531Y326368D01*
X415853Y324732D01*
X413138Y322017D01*
X409590Y320547D01*
X390510Y320547D01*
X386962Y322017D01*
X384247Y324732D01*
X382777Y328280D01*
X382777Y332120D01*
X384247Y335668D01*
X386962Y338383D01*
X390510Y339853D01*
X409590Y339853D01*
X413138Y338383D01*
X415853Y335668D01*
X416531Y334032D01*
X416545Y334007D01*
X416554Y333979D01*
X416624Y333869D01*
X416688Y333756D01*
X416709Y333735D01*
X416725Y333710D01*
X416819Y333621D01*
X416909Y333528D01*
X416935Y333512D01*
X416956Y333492D01*
X417070Y333429D01*
X417181Y333361D01*
X417209Y333353D01*
X417235Y333338D01*
X417360Y333306D01*
X417485Y333268D01*
X417514Y333266D01*
X417543Y333259D01*
X417703Y333249D01*
X421506Y333249D01*
X425071Y329683D01*
X425149Y329623D01*
X425221Y329555D01*
X425274Y329526D01*
X425322Y329489D01*
X425413Y329449D01*
X425500Y329401D01*
X425559Y329386D01*
X425614Y329362D01*
X425712Y329347D01*
X425808Y329322D01*
X425908Y329316D01*
X425928Y329312D01*
X425941Y329314D01*
X425969Y329312D01*
X427679Y329312D01*
X429687Y328480D01*
X431223Y326944D01*
X432055Y324936D01*
X432055Y322764D01*
X431223Y320756D01*
X429687Y319220D01*
X427679Y318388D01*
X425507Y318388D01*
G37*
%LPD*%
%LPC*%
G36*
X536560Y41147D02*
X536560Y41147D01*
X533012Y42617D01*
X530297Y45332D01*
X528827Y48880D01*
X528827Y52720D01*
X530297Y56268D01*
X533012Y58983D01*
X536560Y60453D01*
X555640Y60453D01*
X559188Y58983D01*
X561903Y56268D01*
X562581Y54632D01*
X562595Y54607D01*
X562604Y54579D01*
X562674Y54469D01*
X562738Y54356D01*
X562759Y54335D01*
X562775Y54310D01*
X562869Y54221D01*
X562959Y54128D01*
X562985Y54112D01*
X563006Y54092D01*
X563120Y54029D01*
X563231Y53961D01*
X563259Y53953D01*
X563285Y53938D01*
X563410Y53906D01*
X563535Y53868D01*
X563564Y53866D01*
X563593Y53859D01*
X563753Y53849D01*
X566299Y53849D01*
X566397Y53861D01*
X566496Y53864D01*
X566554Y53881D01*
X566614Y53889D01*
X566707Y53925D01*
X566802Y53953D01*
X566854Y53983D01*
X566910Y54006D01*
X566990Y54064D01*
X567076Y54114D01*
X567151Y54180D01*
X567167Y54192D01*
X567175Y54202D01*
X567196Y54220D01*
X568406Y55430D01*
X570414Y56262D01*
X572586Y56262D01*
X574594Y55430D01*
X576130Y53894D01*
X576962Y51886D01*
X576962Y49714D01*
X576130Y47706D01*
X574594Y46170D01*
X572586Y45338D01*
X570414Y45338D01*
X568406Y46170D01*
X567196Y47380D01*
X567118Y47440D01*
X567046Y47508D01*
X566993Y47537D01*
X566945Y47574D01*
X566854Y47614D01*
X566768Y47662D01*
X566709Y47677D01*
X566653Y47701D01*
X566555Y47716D01*
X566460Y47741D01*
X566360Y47747D01*
X566339Y47751D01*
X566327Y47749D01*
X566299Y47751D01*
X563753Y47751D01*
X563724Y47748D01*
X563695Y47750D01*
X563566Y47728D01*
X563438Y47711D01*
X563410Y47701D01*
X563381Y47696D01*
X563263Y47642D01*
X563142Y47594D01*
X563118Y47577D01*
X563091Y47565D01*
X562990Y47484D01*
X562885Y47408D01*
X562866Y47385D01*
X562843Y47366D01*
X562765Y47263D01*
X562682Y47163D01*
X562669Y47136D01*
X562652Y47112D01*
X562581Y46968D01*
X561903Y45332D01*
X559188Y42617D01*
X555640Y41147D01*
X536560Y41147D01*
G37*
%LPD*%
%LPC*%
G36*
X136510Y34797D02*
X136510Y34797D01*
X132962Y36267D01*
X130247Y38982D01*
X128777Y42530D01*
X128777Y46370D01*
X130247Y49918D01*
X132962Y52633D01*
X136510Y54103D01*
X155590Y54103D01*
X159138Y52633D01*
X161853Y49918D01*
X163323Y46370D01*
X163323Y42530D01*
X161853Y38982D01*
X159138Y36267D01*
X155590Y34797D01*
X136510Y34797D01*
G37*
%LPD*%
%LPC*%
G36*
X269860Y34797D02*
X269860Y34797D01*
X266312Y36267D01*
X263597Y38982D01*
X262127Y42530D01*
X262127Y46370D01*
X263597Y49918D01*
X266312Y52633D01*
X269860Y54103D01*
X288940Y54103D01*
X292488Y52633D01*
X295203Y49918D01*
X296673Y46370D01*
X296673Y42530D01*
X295203Y38982D01*
X292488Y36267D01*
X288940Y34797D01*
X269860Y34797D01*
G37*
%LPD*%
%LPC*%
G36*
X390510Y34797D02*
X390510Y34797D01*
X386962Y36267D01*
X384247Y38982D01*
X382777Y42530D01*
X382777Y46370D01*
X384247Y49918D01*
X386962Y52633D01*
X390510Y54103D01*
X409590Y54103D01*
X413138Y52633D01*
X415853Y49918D01*
X417323Y46370D01*
X417323Y42530D01*
X415853Y38982D01*
X413138Y36267D01*
X409590Y34797D01*
X390510Y34797D01*
G37*
%LPD*%
%LPC*%
G36*
X136510Y60197D02*
X136510Y60197D01*
X132962Y61667D01*
X130247Y64382D01*
X128777Y67930D01*
X128777Y71770D01*
X130247Y75318D01*
X132962Y78033D01*
X136510Y79503D01*
X155590Y79503D01*
X159138Y78033D01*
X161853Y75318D01*
X163323Y71770D01*
X163323Y67930D01*
X161853Y64382D01*
X159138Y61667D01*
X155590Y60197D01*
X136510Y60197D01*
G37*
%LPD*%
%LPC*%
G36*
X269860Y60197D02*
X269860Y60197D01*
X266312Y61667D01*
X263597Y64382D01*
X262127Y67930D01*
X262127Y71770D01*
X263597Y75318D01*
X266312Y78033D01*
X269860Y79503D01*
X288940Y79503D01*
X292488Y78033D01*
X295203Y75318D01*
X296673Y71770D01*
X296673Y67930D01*
X295203Y64382D01*
X292488Y61667D01*
X288940Y60197D01*
X269860Y60197D01*
G37*
%LPD*%
%LPC*%
G36*
X390510Y60197D02*
X390510Y60197D01*
X386962Y61667D01*
X384247Y64382D01*
X382777Y67930D01*
X382777Y71770D01*
X384247Y75318D01*
X386962Y78033D01*
X390510Y79503D01*
X409590Y79503D01*
X413138Y78033D01*
X415853Y75318D01*
X417323Y71770D01*
X417323Y67930D01*
X415853Y64382D01*
X413138Y61667D01*
X409590Y60197D01*
X390510Y60197D01*
G37*
%LPD*%
%LPC*%
G36*
X536560Y66547D02*
X536560Y66547D01*
X533012Y68017D01*
X530297Y70732D01*
X528827Y74280D01*
X528827Y78120D01*
X530297Y81668D01*
X533012Y84383D01*
X536560Y85853D01*
X555640Y85853D01*
X559188Y84383D01*
X561903Y81668D01*
X563373Y78120D01*
X563373Y74280D01*
X561903Y70732D01*
X559188Y68017D01*
X555640Y66547D01*
X536560Y66547D01*
G37*
%LPD*%
%LPC*%
G36*
X136510Y85597D02*
X136510Y85597D01*
X132962Y87067D01*
X130247Y89782D01*
X128777Y93330D01*
X128777Y97170D01*
X130247Y100718D01*
X132962Y103433D01*
X136510Y104903D01*
X155590Y104903D01*
X159138Y103433D01*
X161853Y100718D01*
X163323Y97170D01*
X163323Y93330D01*
X161853Y89782D01*
X159138Y87067D01*
X155590Y85597D01*
X136510Y85597D01*
G37*
%LPD*%
%LPC*%
G36*
X269860Y85597D02*
X269860Y85597D01*
X266312Y87067D01*
X263597Y89782D01*
X262127Y93330D01*
X262127Y97170D01*
X263597Y100718D01*
X266312Y103433D01*
X269860Y104903D01*
X288940Y104903D01*
X292488Y103433D01*
X295203Y100718D01*
X296673Y97170D01*
X296673Y93330D01*
X295203Y89782D01*
X292488Y87067D01*
X288940Y85597D01*
X269860Y85597D01*
G37*
%LPD*%
%LPC*%
G36*
X390510Y85597D02*
X390510Y85597D01*
X386962Y87067D01*
X384247Y89782D01*
X382777Y93330D01*
X382777Y97170D01*
X384247Y100718D01*
X386962Y103433D01*
X390510Y104903D01*
X409590Y104903D01*
X413138Y103433D01*
X415853Y100718D01*
X417323Y97170D01*
X417323Y93330D01*
X415853Y89782D01*
X413138Y87067D01*
X409590Y85597D01*
X390510Y85597D01*
G37*
%LPD*%
%LPC*%
G36*
X136510Y530097D02*
X136510Y530097D01*
X132962Y531567D01*
X130247Y534282D01*
X128777Y537830D01*
X128777Y541670D01*
X130247Y545218D01*
X132962Y547933D01*
X136510Y549403D01*
X155590Y549403D01*
X159138Y547933D01*
X161853Y545218D01*
X163323Y541670D01*
X163323Y537830D01*
X161853Y534282D01*
X159138Y531567D01*
X155590Y530097D01*
X136510Y530097D01*
G37*
%LPD*%
%LPC*%
G36*
X536560Y91947D02*
X536560Y91947D01*
X533012Y93417D01*
X530297Y96132D01*
X528827Y99680D01*
X528827Y103520D01*
X530297Y107068D01*
X533012Y109783D01*
X536560Y111253D01*
X555640Y111253D01*
X559188Y109783D01*
X561903Y107068D01*
X563373Y103520D01*
X563373Y99680D01*
X561903Y96132D01*
X559188Y93417D01*
X555640Y91947D01*
X536560Y91947D01*
G37*
%LPD*%
%LPC*%
G36*
X269860Y110997D02*
X269860Y110997D01*
X266312Y112467D01*
X263597Y115182D01*
X262127Y118730D01*
X262127Y122570D01*
X263597Y126118D01*
X266312Y128833D01*
X269860Y130303D01*
X288940Y130303D01*
X292488Y128833D01*
X295203Y126118D01*
X296673Y122570D01*
X296673Y118730D01*
X295203Y115182D01*
X292488Y112467D01*
X288940Y110997D01*
X269860Y110997D01*
G37*
%LPD*%
%LPC*%
G36*
X390510Y110997D02*
X390510Y110997D01*
X386962Y112467D01*
X384247Y115182D01*
X382777Y118730D01*
X382777Y122570D01*
X384247Y126118D01*
X386962Y128833D01*
X390510Y130303D01*
X409590Y130303D01*
X413138Y128833D01*
X415853Y126118D01*
X417323Y122570D01*
X417323Y118730D01*
X415853Y115182D01*
X413138Y112467D01*
X409590Y110997D01*
X390510Y110997D01*
G37*
%LPD*%
%LPC*%
G36*
X136510Y110997D02*
X136510Y110997D01*
X132962Y112467D01*
X130247Y115182D01*
X128777Y118730D01*
X128777Y122570D01*
X130247Y126118D01*
X132962Y128833D01*
X136510Y130303D01*
X155590Y130303D01*
X159138Y128833D01*
X161853Y126118D01*
X163323Y122570D01*
X163323Y118730D01*
X161853Y115182D01*
X159138Y112467D01*
X155590Y110997D01*
X136510Y110997D01*
G37*
%LPD*%
%LPC*%
G36*
X390510Y504697D02*
X390510Y504697D01*
X386962Y506167D01*
X384247Y508882D01*
X382777Y512430D01*
X382777Y516270D01*
X384247Y519818D01*
X386962Y522533D01*
X390510Y524003D01*
X409590Y524003D01*
X413138Y522533D01*
X415853Y519818D01*
X417323Y516270D01*
X417323Y512430D01*
X415853Y508882D01*
X413138Y506167D01*
X409590Y504697D01*
X390510Y504697D01*
G37*
%LPD*%
%LPC*%
G36*
X536560Y117347D02*
X536560Y117347D01*
X533012Y118817D01*
X530297Y121532D01*
X528827Y125080D01*
X528827Y128920D01*
X530297Y132468D01*
X533012Y135183D01*
X536560Y136653D01*
X555640Y136653D01*
X559188Y135183D01*
X561903Y132468D01*
X563373Y128920D01*
X563373Y125080D01*
X561903Y121532D01*
X559188Y118817D01*
X555640Y117347D01*
X536560Y117347D01*
G37*
%LPD*%
%LPC*%
G36*
X536560Y142747D02*
X536560Y142747D01*
X533012Y144217D01*
X530297Y146932D01*
X528827Y150480D01*
X528827Y154320D01*
X530297Y157868D01*
X533012Y160583D01*
X536560Y162053D01*
X555640Y162053D01*
X559188Y160583D01*
X561903Y157868D01*
X563373Y154320D01*
X563373Y150480D01*
X561903Y146932D01*
X559188Y144217D01*
X555640Y142747D01*
X536560Y142747D01*
G37*
%LPD*%
%LPC*%
G36*
X536560Y168147D02*
X536560Y168147D01*
X533012Y169617D01*
X530297Y172332D01*
X528827Y175880D01*
X528827Y179720D01*
X530297Y183268D01*
X533012Y185983D01*
X536560Y187453D01*
X555640Y187453D01*
X559188Y185983D01*
X561903Y183268D01*
X563373Y179720D01*
X563373Y175880D01*
X561903Y172332D01*
X559188Y169617D01*
X555640Y168147D01*
X536560Y168147D01*
G37*
%LPD*%
%LPC*%
G36*
X391780Y693927D02*
X391780Y693927D01*
X388232Y695397D01*
X385517Y698112D01*
X384047Y701660D01*
X384047Y720740D01*
X385517Y724288D01*
X388232Y727003D01*
X391780Y728473D01*
X395620Y728473D01*
X399168Y727003D01*
X401883Y724288D01*
X403353Y720740D01*
X403353Y701660D01*
X401883Y698112D01*
X399168Y695397D01*
X395620Y693927D01*
X391780Y693927D01*
G37*
%LPD*%
%LPC*%
G36*
X417180Y693927D02*
X417180Y693927D01*
X413632Y695397D01*
X410917Y698112D01*
X409447Y701660D01*
X409447Y720740D01*
X410917Y724288D01*
X413632Y727003D01*
X417180Y728473D01*
X421020Y728473D01*
X424568Y727003D01*
X427283Y724288D01*
X428753Y720740D01*
X428753Y701660D01*
X427283Y698112D01*
X424568Y695397D01*
X421020Y693927D01*
X417180Y693927D01*
G37*
%LPD*%
%LPC*%
G36*
X263510Y530097D02*
X263510Y530097D01*
X259962Y531567D01*
X257247Y534282D01*
X255777Y537830D01*
X255777Y541670D01*
X257247Y545218D01*
X259962Y547933D01*
X263510Y549403D01*
X282590Y549403D01*
X286138Y547933D01*
X288853Y545218D01*
X290323Y541670D01*
X290323Y537830D01*
X288853Y534282D01*
X286138Y531567D01*
X282590Y530097D01*
X263510Y530097D01*
G37*
%LPD*%
%LPC*%
G36*
X390510Y244347D02*
X390510Y244347D01*
X386962Y245817D01*
X384247Y248532D01*
X382777Y252080D01*
X382777Y255920D01*
X384247Y259468D01*
X386962Y262183D01*
X390510Y263653D01*
X409590Y263653D01*
X413138Y262183D01*
X415853Y259468D01*
X417323Y255920D01*
X417323Y252080D01*
X415853Y248532D01*
X413138Y245817D01*
X409590Y244347D01*
X390510Y244347D01*
G37*
%LPD*%
%LPC*%
G36*
X390510Y269747D02*
X390510Y269747D01*
X386962Y271217D01*
X384247Y273932D01*
X382777Y277480D01*
X382777Y281320D01*
X384247Y284868D01*
X386962Y287583D01*
X390510Y289053D01*
X409590Y289053D01*
X413138Y287583D01*
X415853Y284868D01*
X417323Y281320D01*
X417323Y277480D01*
X415853Y273932D01*
X413138Y271217D01*
X409590Y269747D01*
X390510Y269747D01*
G37*
%LPD*%
%LPC*%
G36*
X390510Y295147D02*
X390510Y295147D01*
X386962Y296617D01*
X384247Y299332D01*
X382777Y302880D01*
X382777Y306720D01*
X384247Y310268D01*
X386962Y312983D01*
X390510Y314453D01*
X409590Y314453D01*
X413138Y312983D01*
X415853Y310268D01*
X417323Y306720D01*
X417323Y302880D01*
X415853Y299332D01*
X413138Y296617D01*
X409590Y295147D01*
X390510Y295147D01*
G37*
%LPD*%
%LPC*%
G36*
X493380Y693927D02*
X493380Y693927D01*
X489832Y695397D01*
X487117Y698112D01*
X485647Y701660D01*
X485647Y720740D01*
X487117Y724288D01*
X489832Y727003D01*
X493380Y728473D01*
X497220Y728473D01*
X500768Y727003D01*
X503483Y724288D01*
X504953Y720740D01*
X504953Y701660D01*
X503483Y698112D01*
X500768Y695397D01*
X497220Y693927D01*
X493380Y693927D01*
G37*
%LPD*%
%LPC*%
G36*
X390510Y479297D02*
X390510Y479297D01*
X386962Y480767D01*
X384247Y483482D01*
X382777Y487030D01*
X382777Y490870D01*
X384247Y494418D01*
X386962Y497133D01*
X390510Y498603D01*
X409590Y498603D01*
X413138Y497133D01*
X415853Y494418D01*
X417323Y490870D01*
X417323Y487030D01*
X415853Y483482D01*
X413138Y480767D01*
X409590Y479297D01*
X390510Y479297D01*
G37*
%LPD*%
%LPC*%
G36*
X467980Y693927D02*
X467980Y693927D01*
X464432Y695397D01*
X461717Y698112D01*
X460247Y701660D01*
X460247Y720740D01*
X461717Y724288D01*
X464432Y727003D01*
X467980Y728473D01*
X471820Y728473D01*
X475368Y727003D01*
X478083Y724288D01*
X479553Y720740D01*
X479553Y701660D01*
X478083Y698112D01*
X475368Y695397D01*
X471820Y693927D01*
X467980Y693927D01*
G37*
%LPD*%
%LPC*%
G36*
X269860Y320547D02*
X269860Y320547D01*
X266312Y322017D01*
X263597Y324732D01*
X262127Y328280D01*
X262127Y332120D01*
X263597Y335668D01*
X266312Y338383D01*
X269860Y339853D01*
X288940Y339853D01*
X292488Y338383D01*
X295203Y335668D01*
X296673Y332120D01*
X296673Y328280D01*
X295203Y324732D01*
X292488Y322017D01*
X288940Y320547D01*
X269860Y320547D01*
G37*
%LPD*%
%LPC*%
G36*
X442580Y693927D02*
X442580Y693927D01*
X439032Y695397D01*
X436317Y698112D01*
X434847Y701660D01*
X434847Y720740D01*
X436317Y724288D01*
X439032Y727003D01*
X442580Y728473D01*
X446420Y728473D01*
X449968Y727003D01*
X452683Y724288D01*
X454153Y720740D01*
X454153Y701660D01*
X452683Y698112D01*
X449968Y695397D01*
X446420Y693927D01*
X442580Y693927D01*
G37*
%LPD*%
%LPC*%
G36*
X136510Y320547D02*
X136510Y320547D01*
X132962Y322017D01*
X130247Y324732D01*
X128777Y328280D01*
X128777Y332120D01*
X130247Y335668D01*
X132962Y338383D01*
X136510Y339853D01*
X155590Y339853D01*
X159138Y338383D01*
X161853Y335668D01*
X163323Y332120D01*
X163323Y328280D01*
X161853Y324732D01*
X159138Y322017D01*
X155590Y320547D01*
X136510Y320547D01*
G37*
%LPD*%
%LPC*%
G36*
X485760Y333247D02*
X485760Y333247D01*
X482212Y334717D01*
X479497Y337432D01*
X478027Y340980D01*
X478027Y344820D01*
X479497Y348368D01*
X482212Y351083D01*
X485760Y352553D01*
X504840Y352553D01*
X508388Y351083D01*
X511103Y348368D01*
X512573Y344820D01*
X512573Y340980D01*
X511103Y337432D01*
X508388Y334717D01*
X504840Y333247D01*
X485760Y333247D01*
G37*
%LPD*%
%LPC*%
G36*
X390510Y453897D02*
X390510Y453897D01*
X386962Y455367D01*
X384247Y458082D01*
X382777Y461630D01*
X382777Y465470D01*
X384247Y469018D01*
X386962Y471733D01*
X390510Y473203D01*
X409590Y473203D01*
X413138Y471733D01*
X415853Y469018D01*
X417323Y465470D01*
X417323Y461630D01*
X415853Y458082D01*
X413138Y455367D01*
X409590Y453897D01*
X390510Y453897D01*
G37*
%LPD*%
%LPC*%
G36*
X485760Y358647D02*
X485760Y358647D01*
X482212Y360117D01*
X479497Y362832D01*
X478027Y366380D01*
X478027Y370220D01*
X479497Y373768D01*
X482212Y376483D01*
X485760Y377953D01*
X504840Y377953D01*
X508388Y376483D01*
X511103Y373768D01*
X512573Y370220D01*
X512573Y366380D01*
X511103Y362832D01*
X508388Y360117D01*
X504840Y358647D01*
X485760Y358647D01*
G37*
%LPD*%
%LPC*%
G36*
X189414Y31622D02*
X189414Y31622D01*
X187406Y32454D01*
X185870Y33990D01*
X185038Y35998D01*
X185038Y38170D01*
X185870Y40178D01*
X187406Y41714D01*
X189414Y42546D01*
X191124Y42546D01*
X191223Y42558D01*
X191322Y42561D01*
X191380Y42578D01*
X191440Y42586D01*
X191532Y42622D01*
X191627Y42650D01*
X191679Y42680D01*
X191736Y42703D01*
X191816Y42761D01*
X191901Y42811D01*
X191976Y42877D01*
X191993Y42889D01*
X192001Y42899D01*
X192022Y42917D01*
X199780Y50675D01*
X199840Y50753D01*
X199908Y50825D01*
X199937Y50878D01*
X199974Y50926D01*
X200014Y51017D01*
X200062Y51104D01*
X200077Y51163D01*
X200101Y51218D01*
X200116Y51316D01*
X200141Y51412D01*
X200147Y51512D01*
X200151Y51532D01*
X200149Y51545D01*
X200151Y51573D01*
X200151Y96526D01*
X200139Y96624D01*
X200136Y96723D01*
X200119Y96781D01*
X200111Y96841D01*
X200075Y96934D01*
X200047Y97029D01*
X200017Y97081D01*
X199994Y97137D01*
X199936Y97217D01*
X199886Y97303D01*
X199820Y97378D01*
X199808Y97394D01*
X199798Y97402D01*
X199780Y97423D01*
X198570Y98633D01*
X197738Y100641D01*
X197738Y102813D01*
X198570Y104821D01*
X200106Y106357D01*
X202114Y107189D01*
X204286Y107189D01*
X206294Y106357D01*
X207830Y104821D01*
X208662Y102813D01*
X208662Y100641D01*
X207830Y98633D01*
X206620Y97423D01*
X206560Y97345D01*
X206492Y97273D01*
X206463Y97220D01*
X206426Y97172D01*
X206386Y97081D01*
X206338Y96995D01*
X206323Y96936D01*
X206299Y96880D01*
X206284Y96782D01*
X206259Y96687D01*
X206253Y96587D01*
X206249Y96566D01*
X206251Y96554D01*
X206249Y96526D01*
X206249Y48521D01*
X196333Y38606D01*
X196273Y38528D01*
X196205Y38456D01*
X196176Y38403D01*
X196139Y38355D01*
X196099Y38264D01*
X196051Y38177D01*
X196036Y38118D01*
X196012Y38063D01*
X195997Y37965D01*
X195972Y37869D01*
X195966Y37769D01*
X195962Y37749D01*
X195964Y37736D01*
X195962Y37708D01*
X195962Y35998D01*
X195130Y33990D01*
X193594Y32454D01*
X191586Y31622D01*
X189414Y31622D01*
G37*
%LPD*%
%LPC*%
G36*
X189414Y241172D02*
X189414Y241172D01*
X187406Y242004D01*
X185870Y243540D01*
X185038Y245548D01*
X185038Y247720D01*
X185870Y249728D01*
X187080Y250938D01*
X187140Y251016D01*
X187208Y251088D01*
X187237Y251141D01*
X187274Y251189D01*
X187314Y251280D01*
X187362Y251366D01*
X187377Y251425D01*
X187401Y251481D01*
X187416Y251579D01*
X187441Y251674D01*
X187447Y251774D01*
X187451Y251795D01*
X187449Y251807D01*
X187451Y251835D01*
X187451Y306076D01*
X187439Y306174D01*
X187436Y306273D01*
X187419Y306331D01*
X187411Y306391D01*
X187375Y306484D01*
X187347Y306579D01*
X187317Y306631D01*
X187294Y306687D01*
X187236Y306767D01*
X187186Y306853D01*
X187120Y306928D01*
X187108Y306944D01*
X187098Y306952D01*
X187080Y306973D01*
X185870Y308183D01*
X185038Y310191D01*
X185038Y312363D01*
X185870Y314371D01*
X187406Y315907D01*
X189414Y316739D01*
X191586Y316739D01*
X193594Y315907D01*
X195130Y314371D01*
X195962Y312363D01*
X195962Y310191D01*
X195130Y308183D01*
X193920Y306973D01*
X193860Y306895D01*
X193792Y306823D01*
X193763Y306770D01*
X193726Y306722D01*
X193686Y306631D01*
X193638Y306545D01*
X193623Y306486D01*
X193599Y306430D01*
X193584Y306332D01*
X193559Y306237D01*
X193553Y306137D01*
X193549Y306116D01*
X193551Y306104D01*
X193549Y306076D01*
X193549Y251835D01*
X193561Y251737D01*
X193564Y251638D01*
X193581Y251580D01*
X193589Y251520D01*
X193625Y251427D01*
X193653Y251332D01*
X193683Y251280D01*
X193706Y251224D01*
X193764Y251144D01*
X193814Y251058D01*
X193880Y250983D01*
X193892Y250967D01*
X193902Y250959D01*
X193920Y250938D01*
X195130Y249728D01*
X195962Y247720D01*
X195962Y245548D01*
X195130Y243540D01*
X193594Y242004D01*
X191586Y241172D01*
X189414Y241172D01*
G37*
%LPD*%
%LPC*%
G36*
X176714Y577277D02*
X176714Y577277D01*
X174706Y578109D01*
X173170Y579645D01*
X172338Y581653D01*
X172338Y583825D01*
X173170Y585833D01*
X174706Y587369D01*
X176714Y588201D01*
X178424Y588201D01*
X178523Y588213D01*
X178622Y588216D01*
X178680Y588233D01*
X178740Y588241D01*
X178832Y588277D01*
X178927Y588305D01*
X178979Y588335D01*
X179036Y588358D01*
X179116Y588416D01*
X179201Y588466D01*
X179276Y588532D01*
X179293Y588544D01*
X179301Y588554D01*
X179322Y588572D01*
X193629Y602880D01*
X193690Y602958D01*
X193758Y603030D01*
X193787Y603083D01*
X193824Y603131D01*
X193864Y603222D01*
X193911Y603309D01*
X193926Y603367D01*
X193950Y603423D01*
X193966Y603521D01*
X193991Y603617D01*
X193997Y603717D01*
X194000Y603737D01*
X193999Y603749D01*
X194001Y603777D01*
X194001Y604599D01*
X193989Y604697D01*
X193986Y604796D01*
X193969Y604854D01*
X193961Y604914D01*
X193925Y605006D01*
X193897Y605101D01*
X193866Y605154D01*
X193844Y605210D01*
X193786Y605290D01*
X193736Y605375D01*
X193669Y605451D01*
X193657Y605467D01*
X193648Y605475D01*
X193629Y605496D01*
X192419Y606706D01*
X191588Y608713D01*
X191588Y610886D01*
X192419Y612893D01*
X193956Y614430D01*
X195963Y615261D01*
X198136Y615261D01*
X200143Y614430D01*
X201680Y612893D01*
X202511Y610886D01*
X202511Y608713D01*
X201680Y606706D01*
X200470Y605496D01*
X200409Y605418D01*
X200342Y605346D01*
X200312Y605293D01*
X200275Y605245D01*
X200236Y605154D01*
X200188Y605067D01*
X200173Y605009D01*
X200149Y604953D01*
X200133Y604855D01*
X200109Y604759D01*
X200102Y604659D01*
X200099Y604639D01*
X200100Y604627D01*
X200098Y604599D01*
X200098Y600726D01*
X183633Y584261D01*
X183573Y584183D01*
X183505Y584111D01*
X183476Y584058D01*
X183439Y584010D01*
X183399Y583919D01*
X183351Y583832D01*
X183336Y583773D01*
X183312Y583718D01*
X183297Y583620D01*
X183272Y583524D01*
X183266Y583424D01*
X183262Y583404D01*
X183264Y583391D01*
X183262Y583363D01*
X183262Y581653D01*
X182430Y579645D01*
X180894Y578109D01*
X178886Y577277D01*
X176714Y577277D01*
G37*
%LPD*%
%LPC*%
G36*
X303714Y577277D02*
X303714Y577277D01*
X301706Y578109D01*
X300170Y579645D01*
X299338Y581653D01*
X299338Y583825D01*
X300170Y585833D01*
X301706Y587369D01*
X303714Y588201D01*
X305424Y588201D01*
X305523Y588213D01*
X305622Y588216D01*
X305680Y588233D01*
X305740Y588241D01*
X305832Y588277D01*
X305927Y588305D01*
X305979Y588335D01*
X306036Y588358D01*
X306116Y588416D01*
X306201Y588466D01*
X306276Y588532D01*
X306293Y588544D01*
X306301Y588554D01*
X306322Y588572D01*
X320629Y602880D01*
X320690Y602958D01*
X320758Y603030D01*
X320787Y603083D01*
X320824Y603131D01*
X320864Y603222D01*
X320911Y603309D01*
X320926Y603367D01*
X320950Y603423D01*
X320966Y603521D01*
X320991Y603617D01*
X320997Y603717D01*
X321000Y603737D01*
X320999Y603749D01*
X321001Y603777D01*
X321001Y604599D01*
X320989Y604697D01*
X320986Y604796D01*
X320969Y604854D01*
X320961Y604914D01*
X320925Y605006D01*
X320897Y605101D01*
X320866Y605154D01*
X320844Y605210D01*
X320786Y605290D01*
X320736Y605375D01*
X320669Y605451D01*
X320657Y605467D01*
X320648Y605475D01*
X320629Y605496D01*
X319419Y606706D01*
X318588Y608713D01*
X318588Y610886D01*
X319419Y612893D01*
X320956Y614430D01*
X322963Y615261D01*
X325136Y615261D01*
X327143Y614430D01*
X328680Y612893D01*
X329511Y610886D01*
X329511Y608713D01*
X328680Y606706D01*
X327470Y605496D01*
X327409Y605418D01*
X327342Y605346D01*
X327312Y605293D01*
X327275Y605245D01*
X327236Y605154D01*
X327188Y605067D01*
X327173Y605009D01*
X327149Y604953D01*
X327133Y604855D01*
X327109Y604759D01*
X327102Y604659D01*
X327099Y604639D01*
X327100Y604627D01*
X327098Y604599D01*
X327098Y600726D01*
X310633Y584261D01*
X310573Y584183D01*
X310505Y584111D01*
X310476Y584058D01*
X310439Y584010D01*
X310399Y583919D01*
X310351Y583832D01*
X310336Y583773D01*
X310312Y583718D01*
X310297Y583620D01*
X310272Y583524D01*
X310266Y583424D01*
X310262Y583404D01*
X310264Y583391D01*
X310262Y583363D01*
X310262Y581653D01*
X309430Y579645D01*
X307894Y578109D01*
X305886Y577277D01*
X303714Y577277D01*
G37*
%LPD*%
%LPC*%
G36*
X435957Y577277D02*
X435957Y577277D01*
X433950Y578109D01*
X432414Y579645D01*
X431582Y581653D01*
X431582Y583825D01*
X432414Y585833D01*
X433623Y587043D01*
X433684Y587121D01*
X433752Y587193D01*
X433781Y587246D01*
X433818Y587294D01*
X433858Y587385D01*
X433905Y587471D01*
X433921Y587530D01*
X433945Y587586D01*
X433960Y587684D01*
X433985Y587779D01*
X433991Y587879D01*
X433995Y587900D01*
X433993Y587912D01*
X433995Y587940D01*
X433995Y597057D01*
X445216Y608278D01*
X445277Y608356D01*
X445345Y608428D01*
X445374Y608481D01*
X445411Y608529D01*
X445451Y608620D01*
X445498Y608707D01*
X445513Y608765D01*
X445537Y608821D01*
X445553Y608919D01*
X445578Y609015D01*
X445584Y609115D01*
X445587Y609135D01*
X445586Y609147D01*
X445588Y609175D01*
X445588Y610886D01*
X446419Y612893D01*
X447956Y614430D01*
X449963Y615261D01*
X452136Y615261D01*
X454143Y614430D01*
X455680Y612893D01*
X456511Y610886D01*
X456511Y608713D01*
X455680Y606706D01*
X454143Y605169D01*
X452136Y604338D01*
X450425Y604338D01*
X450327Y604326D01*
X450228Y604323D01*
X450170Y604306D01*
X450110Y604298D01*
X450018Y604262D01*
X449923Y604234D01*
X449870Y604203D01*
X449814Y604181D01*
X449734Y604123D01*
X449649Y604073D01*
X449573Y604006D01*
X449557Y603994D01*
X449549Y603985D01*
X449528Y603966D01*
X440464Y594903D01*
X440404Y594825D01*
X440336Y594752D01*
X440314Y594713D01*
X440297Y594693D01*
X440291Y594679D01*
X440269Y594652D01*
X440230Y594561D01*
X440182Y594474D01*
X440168Y594418D01*
X440162Y594405D01*
X440161Y594401D01*
X440143Y594360D01*
X440128Y594262D01*
X440103Y594166D01*
X440096Y594066D01*
X440093Y594046D01*
X440094Y594033D01*
X440093Y594005D01*
X440093Y587940D01*
X440105Y587842D01*
X440108Y587743D01*
X440125Y587685D01*
X440132Y587625D01*
X440169Y587532D01*
X440196Y587437D01*
X440227Y587385D01*
X440249Y587329D01*
X440308Y587249D01*
X440358Y587163D01*
X440424Y587088D01*
X440436Y587072D01*
X440446Y587064D01*
X440464Y587043D01*
X441674Y585833D01*
X442506Y583825D01*
X442506Y581653D01*
X441674Y579645D01*
X440138Y578109D01*
X438130Y577277D01*
X435957Y577277D01*
G37*
%LPD*%
%LPC*%
G36*
X36887Y540638D02*
X36887Y540638D01*
X34879Y541470D01*
X33343Y543006D01*
X32511Y545014D01*
X32511Y547186D01*
X33343Y549194D01*
X34879Y550730D01*
X36887Y551562D01*
X39059Y551562D01*
X41067Y550730D01*
X42277Y549520D01*
X42355Y549460D01*
X42427Y549392D01*
X42480Y549363D01*
X42528Y549326D01*
X42619Y549286D01*
X42705Y549238D01*
X42764Y549223D01*
X42820Y549199D01*
X42918Y549184D01*
X43013Y549159D01*
X43113Y549153D01*
X43134Y549149D01*
X43146Y549151D01*
X43174Y549149D01*
X58426Y549149D01*
X58524Y549161D01*
X58623Y549164D01*
X58681Y549181D01*
X58741Y549189D01*
X58834Y549225D01*
X58929Y549253D01*
X58981Y549283D01*
X59037Y549306D01*
X59117Y549364D01*
X59203Y549414D01*
X59278Y549480D01*
X59294Y549492D01*
X59302Y549502D01*
X59323Y549520D01*
X60533Y550730D01*
X62541Y551562D01*
X64713Y551562D01*
X66721Y550730D01*
X68257Y549194D01*
X69089Y547186D01*
X69089Y545014D01*
X68257Y543006D01*
X66721Y541470D01*
X64713Y540638D01*
X62541Y540638D01*
X60533Y541470D01*
X59323Y542680D01*
X59245Y542740D01*
X59173Y542808D01*
X59120Y542837D01*
X59072Y542874D01*
X58981Y542914D01*
X58895Y542962D01*
X58836Y542977D01*
X58780Y543001D01*
X58682Y543016D01*
X58587Y543041D01*
X58487Y543047D01*
X58466Y543051D01*
X58454Y543049D01*
X58426Y543051D01*
X43174Y543051D01*
X43076Y543039D01*
X42977Y543036D01*
X42919Y543019D01*
X42859Y543011D01*
X42766Y542975D01*
X42671Y542947D01*
X42619Y542917D01*
X42563Y542894D01*
X42483Y542836D01*
X42397Y542786D01*
X42322Y542720D01*
X42306Y542708D01*
X42298Y542698D01*
X42277Y542680D01*
X41067Y541470D01*
X39059Y540638D01*
X36887Y540638D01*
G37*
%LPD*%
%LPC*%
G36*
X51993Y337438D02*
X51993Y337438D01*
X49985Y338270D01*
X48775Y339480D01*
X48697Y339540D01*
X48625Y339608D01*
X48572Y339637D01*
X48524Y339674D01*
X48433Y339714D01*
X48347Y339762D01*
X48288Y339777D01*
X48232Y339801D01*
X48134Y339816D01*
X48039Y339841D01*
X47939Y339847D01*
X47918Y339851D01*
X47906Y339849D01*
X47878Y339851D01*
X45212Y339851D01*
X41647Y343417D01*
X41569Y343477D01*
X41497Y343545D01*
X41444Y343574D01*
X41396Y343611D01*
X41305Y343651D01*
X41218Y343699D01*
X41159Y343714D01*
X41104Y343738D01*
X41006Y343753D01*
X40910Y343778D01*
X40810Y343784D01*
X40790Y343788D01*
X40777Y343786D01*
X40749Y343788D01*
X39039Y343788D01*
X37031Y344620D01*
X35495Y346156D01*
X34663Y348164D01*
X34663Y350336D01*
X35495Y352344D01*
X37031Y353880D01*
X39039Y354712D01*
X41211Y354712D01*
X43219Y353880D01*
X44755Y352344D01*
X45587Y350336D01*
X45587Y348626D01*
X45599Y348527D01*
X45602Y348428D01*
X45619Y348370D01*
X45627Y348310D01*
X45663Y348218D01*
X45691Y348123D01*
X45721Y348071D01*
X45744Y348014D01*
X45802Y347934D01*
X45852Y347849D01*
X45918Y347774D01*
X45930Y347757D01*
X45940Y347749D01*
X45958Y347728D01*
X47173Y346513D01*
X47267Y346440D01*
X47357Y346362D01*
X47393Y346343D01*
X47425Y346318D01*
X47534Y346271D01*
X47640Y346217D01*
X47679Y346208D01*
X47716Y346192D01*
X47834Y346173D01*
X47950Y346147D01*
X47990Y346149D01*
X48030Y346142D01*
X48149Y346153D01*
X48268Y346157D01*
X48307Y346168D01*
X48347Y346172D01*
X48459Y346212D01*
X48573Y346245D01*
X48608Y346266D01*
X48646Y346280D01*
X48745Y346346D01*
X48847Y346407D01*
X48893Y346447D01*
X48909Y346458D01*
X48923Y346473D01*
X48968Y346513D01*
X49985Y347530D01*
X51993Y348362D01*
X54165Y348362D01*
X56173Y347530D01*
X57709Y345994D01*
X58541Y343986D01*
X58541Y341814D01*
X57709Y339806D01*
X56173Y338270D01*
X54165Y337438D01*
X51993Y337438D01*
G37*
%LPD*%
%LPC*%
G36*
X348164Y108711D02*
X348164Y108711D01*
X346156Y109543D01*
X344620Y111079D01*
X343788Y113087D01*
X343788Y115259D01*
X344620Y117267D01*
X345830Y118477D01*
X345890Y118555D01*
X345958Y118627D01*
X345987Y118680D01*
X346024Y118728D01*
X346064Y118819D01*
X346112Y118905D01*
X346127Y118964D01*
X346151Y119020D01*
X346166Y119118D01*
X346191Y119213D01*
X346197Y119313D01*
X346201Y119334D01*
X346199Y119346D01*
X346201Y119374D01*
X346201Y121926D01*
X346189Y122024D01*
X346186Y122123D01*
X346169Y122181D01*
X346161Y122241D01*
X346125Y122334D01*
X346097Y122429D01*
X346067Y122481D01*
X346044Y122537D01*
X345986Y122617D01*
X345936Y122703D01*
X345870Y122778D01*
X345858Y122794D01*
X345848Y122802D01*
X345830Y122823D01*
X344620Y124033D01*
X343788Y126041D01*
X343788Y128213D01*
X344620Y130221D01*
X346156Y131757D01*
X348164Y132589D01*
X350336Y132589D01*
X352344Y131757D01*
X353880Y130221D01*
X354712Y128213D01*
X354712Y126041D01*
X353880Y124033D01*
X352670Y122823D01*
X352610Y122745D01*
X352542Y122673D01*
X352513Y122620D01*
X352476Y122572D01*
X352436Y122481D01*
X352388Y122395D01*
X352373Y122336D01*
X352349Y122280D01*
X352334Y122182D01*
X352309Y122087D01*
X352303Y121987D01*
X352299Y121966D01*
X352301Y121954D01*
X352299Y121926D01*
X352299Y119374D01*
X352311Y119276D01*
X352314Y119177D01*
X352331Y119119D01*
X352339Y119059D01*
X352375Y118966D01*
X352403Y118871D01*
X352433Y118819D01*
X352456Y118763D01*
X352514Y118683D01*
X352564Y118597D01*
X352630Y118522D01*
X352642Y118506D01*
X352652Y118498D01*
X352670Y118477D01*
X353880Y117267D01*
X354712Y115259D01*
X354712Y113087D01*
X353880Y111079D01*
X352344Y109543D01*
X350336Y108711D01*
X348164Y108711D01*
G37*
%LPD*%
%LPC*%
G36*
X574039Y383539D02*
X574039Y383539D01*
X574039Y391161D01*
X579920Y391161D01*
X581499Y390911D01*
X583020Y390416D01*
X584445Y389690D01*
X585739Y388750D01*
X586870Y387619D01*
X587810Y386325D01*
X588536Y384900D01*
X588979Y383539D01*
X574039Y383539D01*
G37*
%LPD*%
%LPC*%
G36*
X574039Y332739D02*
X574039Y332739D01*
X574039Y340361D01*
X579920Y340361D01*
X581499Y340111D01*
X583020Y339616D01*
X584445Y338890D01*
X585739Y337950D01*
X586870Y336819D01*
X587810Y335525D01*
X588536Y334100D01*
X588979Y332739D01*
X574039Y332739D01*
G37*
%LPD*%
%LPC*%
G36*
X574039Y358139D02*
X574039Y358139D01*
X574039Y365761D01*
X579920Y365761D01*
X581499Y365511D01*
X583020Y365016D01*
X584445Y364290D01*
X585739Y363350D01*
X586870Y362219D01*
X587810Y360925D01*
X588536Y359500D01*
X588979Y358139D01*
X574039Y358139D01*
G37*
%LPD*%
%LPC*%
G36*
X523239Y713739D02*
X523239Y713739D01*
X523239Y728679D01*
X524600Y728236D01*
X526025Y727510D01*
X527319Y726570D01*
X528450Y725439D01*
X529390Y724145D01*
X530116Y722720D01*
X530611Y721199D01*
X530861Y719620D01*
X530861Y713739D01*
X523239Y713739D01*
G37*
%LPD*%
%LPC*%
G36*
X554021Y332739D02*
X554021Y332739D01*
X554464Y334100D01*
X555190Y335525D01*
X556130Y336819D01*
X557261Y337950D01*
X558555Y338890D01*
X559980Y339616D01*
X561501Y340111D01*
X563080Y340361D01*
X568961Y340361D01*
X568961Y332739D01*
X554021Y332739D01*
G37*
%LPD*%
%LPC*%
G36*
X554021Y358139D02*
X554021Y358139D01*
X554464Y359500D01*
X555190Y360925D01*
X556130Y362219D01*
X557261Y363350D01*
X558555Y364290D01*
X559980Y365016D01*
X561501Y365511D01*
X563080Y365761D01*
X568961Y365761D01*
X568961Y358139D01*
X554021Y358139D01*
G37*
%LPD*%
%LPC*%
G36*
X205739Y708661D02*
X205739Y708661D01*
X213361Y708661D01*
X213361Y702780D01*
X213111Y701201D01*
X212616Y699680D01*
X211890Y698255D01*
X210950Y696961D01*
X209819Y695830D01*
X208525Y694890D01*
X207100Y694164D01*
X205739Y693721D01*
X205739Y708661D01*
G37*
%LPD*%
%LPC*%
G36*
X554021Y383539D02*
X554021Y383539D01*
X554464Y384900D01*
X555190Y386325D01*
X556130Y387619D01*
X557261Y388750D01*
X558555Y389690D01*
X559980Y390416D01*
X561501Y390911D01*
X563080Y391161D01*
X568961Y391161D01*
X568961Y383539D01*
X554021Y383539D01*
G37*
%LPD*%
%LPC*%
G36*
X523239Y708661D02*
X523239Y708661D01*
X530861Y708661D01*
X530861Y702780D01*
X530611Y701201D01*
X530116Y699680D01*
X529390Y698255D01*
X528450Y696961D01*
X527319Y695830D01*
X526025Y694890D01*
X524600Y694164D01*
X523239Y693721D01*
X523239Y708661D01*
G37*
%LPD*%
%LPC*%
G36*
X574039Y370839D02*
X574039Y370839D01*
X574039Y378461D01*
X588979Y378461D01*
X588536Y377100D01*
X587810Y375675D01*
X586870Y374381D01*
X585739Y373250D01*
X584445Y372310D01*
X583020Y371584D01*
X581499Y371089D01*
X579920Y370839D01*
X574039Y370839D01*
G37*
%LPD*%
%LPC*%
G36*
X574039Y320039D02*
X574039Y320039D01*
X574039Y327661D01*
X588979Y327661D01*
X588536Y326300D01*
X587810Y324875D01*
X586870Y323581D01*
X585739Y322450D01*
X584445Y321510D01*
X583020Y320784D01*
X581499Y320289D01*
X579920Y320039D01*
X574039Y320039D01*
G37*
%LPD*%
%LPC*%
G36*
X510539Y713739D02*
X510539Y713739D01*
X510539Y719620D01*
X510789Y721199D01*
X511284Y722720D01*
X512010Y724145D01*
X512950Y725439D01*
X514081Y726570D01*
X515375Y727510D01*
X516800Y728236D01*
X518161Y728679D01*
X518161Y713739D01*
X510539Y713739D01*
G37*
%LPD*%
%LPC*%
G36*
X574039Y345439D02*
X574039Y345439D01*
X574039Y353061D01*
X588979Y353061D01*
X588536Y351700D01*
X587810Y350275D01*
X586870Y348981D01*
X585739Y347850D01*
X584445Y346910D01*
X583020Y346184D01*
X581499Y345689D01*
X579920Y345439D01*
X574039Y345439D01*
G37*
%LPD*%
%LPC*%
G36*
X563080Y345439D02*
X563080Y345439D01*
X561501Y345689D01*
X559980Y346184D01*
X558555Y346910D01*
X557261Y347850D01*
X556130Y348981D01*
X555190Y350275D01*
X554464Y351700D01*
X554021Y353061D01*
X568961Y353061D01*
X568961Y345439D01*
X563080Y345439D01*
G37*
%LPD*%
%LPC*%
G36*
X563080Y370839D02*
X563080Y370839D01*
X561501Y371089D01*
X559980Y371584D01*
X558555Y372310D01*
X557261Y373250D01*
X556130Y374381D01*
X555190Y375675D01*
X554464Y377100D01*
X554021Y378461D01*
X568961Y378461D01*
X568961Y370839D01*
X563080Y370839D01*
G37*
%LPD*%
%LPC*%
G36*
X199300Y694164D02*
X199300Y694164D01*
X197875Y694890D01*
X196581Y695830D01*
X195450Y696961D01*
X194510Y698255D01*
X193784Y699680D01*
X193289Y701201D01*
X193039Y702780D01*
X193039Y708661D01*
X200661Y708661D01*
X200661Y693721D01*
X199300Y694164D01*
G37*
%LPD*%
%LPC*%
G36*
X563080Y320039D02*
X563080Y320039D01*
X561501Y320289D01*
X559980Y320784D01*
X558555Y321510D01*
X557261Y322450D01*
X556130Y323581D01*
X555190Y324875D01*
X554464Y326300D01*
X554021Y327661D01*
X568961Y327661D01*
X568961Y320039D01*
X563080Y320039D01*
G37*
%LPD*%
%LPC*%
G36*
X516800Y694164D02*
X516800Y694164D01*
X515375Y694890D01*
X514081Y695830D01*
X512950Y696961D01*
X512010Y698255D01*
X511284Y699680D01*
X510789Y701201D01*
X510539Y702780D01*
X510539Y708661D01*
X518161Y708661D01*
X518161Y693721D01*
X516800Y694164D01*
G37*
%LPD*%
%LPC*%
G36*
X70858Y528319D02*
X70858Y528319D01*
X70858Y532884D01*
X71330Y532790D01*
X72417Y532340D01*
X73394Y531687D01*
X74226Y530855D01*
X74879Y529878D01*
X75329Y528791D01*
X75423Y528319D01*
X70858Y528319D01*
G37*
%LPD*%
%LPC*%
G36*
X337819Y629919D02*
X337819Y629919D01*
X337819Y634484D01*
X338291Y634390D01*
X339378Y633940D01*
X340355Y633287D01*
X341187Y632455D01*
X341840Y631478D01*
X342290Y630391D01*
X342384Y629919D01*
X337819Y629919D01*
G37*
%LPD*%
%LPC*%
G36*
X210819Y629919D02*
X210819Y629919D01*
X210819Y634484D01*
X211291Y634390D01*
X212378Y633940D01*
X213355Y633287D01*
X214187Y632455D01*
X214840Y631478D01*
X215290Y630391D01*
X215384Y629919D01*
X210819Y629919D01*
G37*
%LPD*%
%LPC*%
G36*
X464819Y629919D02*
X464819Y629919D01*
X464819Y634484D01*
X465291Y634390D01*
X466378Y633940D01*
X467355Y633287D01*
X468187Y632455D01*
X468840Y631478D01*
X469290Y630391D01*
X469384Y629919D01*
X464819Y629919D01*
G37*
%LPD*%
%LPC*%
G36*
X20319Y623569D02*
X20319Y623569D01*
X20319Y628134D01*
X20791Y628040D01*
X21878Y627590D01*
X22855Y626937D01*
X23687Y626105D01*
X24340Y625128D01*
X24790Y624041D01*
X24884Y623569D01*
X20319Y623569D01*
G37*
%LPD*%
%LPC*%
G36*
X70158Y153669D02*
X70158Y153669D01*
X70158Y158234D01*
X70630Y158140D01*
X71717Y157690D01*
X72694Y157037D01*
X73526Y156205D01*
X74179Y155228D01*
X74629Y154141D01*
X74723Y153669D01*
X70158Y153669D01*
G37*
%LPD*%
%LPC*%
G36*
X52069Y153669D02*
X52069Y153669D01*
X52069Y158234D01*
X52541Y158140D01*
X53628Y157690D01*
X54605Y157037D01*
X55437Y156205D01*
X56090Y155228D01*
X56540Y154141D01*
X56634Y153669D01*
X52069Y153669D01*
G37*
%LPD*%
%LPC*%
G36*
X70858Y185419D02*
X70858Y185419D01*
X70858Y189984D01*
X71330Y189890D01*
X72417Y189440D01*
X73394Y188787D01*
X74226Y187955D01*
X74879Y186978D01*
X75329Y185891D01*
X75423Y185419D01*
X70858Y185419D01*
G37*
%LPD*%
%LPC*%
G36*
X338730Y604519D02*
X338730Y604519D01*
X338730Y609084D01*
X339202Y608990D01*
X340289Y608540D01*
X341266Y607887D01*
X342098Y607055D01*
X342751Y606078D01*
X343201Y604991D01*
X343295Y604519D01*
X338730Y604519D01*
G37*
%LPD*%
%LPC*%
G36*
X211730Y604519D02*
X211730Y604519D01*
X211730Y609084D01*
X212202Y608990D01*
X213289Y608540D01*
X214266Y607887D01*
X215098Y607055D01*
X215751Y606078D01*
X216201Y604991D01*
X216295Y604519D01*
X211730Y604519D01*
G37*
%LPD*%
%LPC*%
G36*
X54348Y287019D02*
X54348Y287019D01*
X54348Y291584D01*
X54820Y291490D01*
X55907Y291040D01*
X56884Y290387D01*
X57716Y289555D01*
X58369Y288578D01*
X58819Y287491D01*
X58913Y287019D01*
X54348Y287019D01*
G37*
%LPD*%
%LPC*%
G36*
X70158Y287019D02*
X70158Y287019D01*
X70158Y291584D01*
X70630Y291490D01*
X71717Y291040D01*
X72694Y290387D01*
X73526Y289555D01*
X74179Y288578D01*
X74629Y287491D01*
X74723Y287019D01*
X70158Y287019D01*
G37*
%LPD*%
%LPC*%
G36*
X465730Y604519D02*
X465730Y604519D01*
X465730Y609084D01*
X466202Y608990D01*
X467289Y608540D01*
X468266Y607887D01*
X469098Y607055D01*
X469751Y606078D01*
X470201Y604991D01*
X470295Y604519D01*
X465730Y604519D01*
G37*
%LPD*%
%LPC*%
G36*
X70858Y318769D02*
X70858Y318769D01*
X70858Y323334D01*
X71330Y323240D01*
X72417Y322790D01*
X73394Y322137D01*
X74226Y321305D01*
X74879Y320328D01*
X75329Y319241D01*
X75423Y318769D01*
X70858Y318769D01*
G37*
%LPD*%
%LPC*%
G36*
X70158Y496569D02*
X70158Y496569D01*
X70158Y501134D01*
X70630Y501040D01*
X71717Y500590D01*
X72694Y499937D01*
X73526Y499105D01*
X74179Y498128D01*
X74629Y497041D01*
X74723Y496569D01*
X70158Y496569D01*
G37*
%LPD*%
%LPC*%
G36*
X54348Y496569D02*
X54348Y496569D01*
X54348Y501134D01*
X54820Y501040D01*
X55907Y500590D01*
X56884Y499937D01*
X57716Y499105D01*
X58369Y498128D01*
X58819Y497041D01*
X58913Y496569D01*
X54348Y496569D01*
G37*
%LPD*%
%LPC*%
G36*
X147319Y598169D02*
X147319Y598169D01*
X147319Y602734D01*
X147791Y602640D01*
X148878Y602190D01*
X149855Y601537D01*
X150687Y600705D01*
X151340Y599728D01*
X151790Y598641D01*
X151884Y598169D01*
X147319Y598169D01*
G37*
%LPD*%
%LPC*%
G36*
X140216Y598169D02*
X140216Y598169D01*
X140310Y598641D01*
X140760Y599728D01*
X141413Y600705D01*
X142245Y601537D01*
X143222Y602190D01*
X144309Y602640D01*
X144781Y602734D01*
X144781Y598169D01*
X140216Y598169D01*
G37*
%LPD*%
%LPC*%
G36*
X70158Y284481D02*
X70158Y284481D01*
X74723Y284481D01*
X74629Y284009D01*
X74179Y282922D01*
X73526Y281945D01*
X72694Y281113D01*
X71717Y280460D01*
X70630Y280010D01*
X70158Y279916D01*
X70158Y284481D01*
G37*
%LPD*%
%LPC*%
G36*
X54348Y494031D02*
X54348Y494031D01*
X58913Y494031D01*
X58819Y493559D01*
X58369Y492472D01*
X57716Y491495D01*
X56884Y490663D01*
X55907Y490010D01*
X54820Y489560D01*
X54348Y489466D01*
X54348Y494031D01*
G37*
%LPD*%
%LPC*%
G36*
X147319Y595631D02*
X147319Y595631D01*
X151884Y595631D01*
X151790Y595159D01*
X151340Y594072D01*
X150687Y593095D01*
X149855Y592263D01*
X148878Y591610D01*
X147791Y591160D01*
X147319Y591066D01*
X147319Y595631D01*
G37*
%LPD*%
%LPC*%
G36*
X63755Y318769D02*
X63755Y318769D01*
X63849Y319241D01*
X64299Y320328D01*
X64952Y321305D01*
X65784Y322137D01*
X66761Y322790D01*
X67848Y323240D01*
X68320Y323334D01*
X68320Y318769D01*
X63755Y318769D01*
G37*
%LPD*%
%LPC*%
G36*
X47245Y496569D02*
X47245Y496569D01*
X47339Y497041D01*
X47789Y498128D01*
X48442Y499105D01*
X49274Y499937D01*
X50251Y500590D01*
X51338Y501040D01*
X51810Y501134D01*
X51810Y496569D01*
X47245Y496569D01*
G37*
%LPD*%
%LPC*%
G36*
X458627Y604519D02*
X458627Y604519D01*
X458721Y604991D01*
X459171Y606078D01*
X459824Y607055D01*
X460656Y607887D01*
X461633Y608540D01*
X462720Y608990D01*
X463192Y609084D01*
X463192Y604519D01*
X458627Y604519D01*
G37*
%LPD*%
%LPC*%
G36*
X331627Y604519D02*
X331627Y604519D01*
X331721Y604991D01*
X332171Y606078D01*
X332824Y607055D01*
X333656Y607887D01*
X334633Y608540D01*
X335720Y608990D01*
X336192Y609084D01*
X336192Y604519D01*
X331627Y604519D01*
G37*
%LPD*%
%LPC*%
G36*
X203716Y629919D02*
X203716Y629919D01*
X203810Y630391D01*
X204260Y631478D01*
X204913Y632455D01*
X205745Y633287D01*
X206722Y633940D01*
X207809Y634390D01*
X208281Y634484D01*
X208281Y629919D01*
X203716Y629919D01*
G37*
%LPD*%
%LPC*%
G36*
X70858Y316231D02*
X70858Y316231D01*
X75423Y316231D01*
X75329Y315759D01*
X74879Y314672D01*
X74226Y313695D01*
X73394Y312863D01*
X72417Y312210D01*
X71330Y311760D01*
X70858Y311666D01*
X70858Y316231D01*
G37*
%LPD*%
%LPC*%
G36*
X330716Y629919D02*
X330716Y629919D01*
X330810Y630391D01*
X331260Y631478D01*
X331913Y632455D01*
X332745Y633287D01*
X333722Y633940D01*
X334809Y634390D01*
X335281Y634484D01*
X335281Y629919D01*
X330716Y629919D01*
G37*
%LPD*%
%LPC*%
G36*
X211730Y601981D02*
X211730Y601981D01*
X216295Y601981D01*
X216201Y601509D01*
X215751Y600422D01*
X215098Y599445D01*
X214266Y598613D01*
X213289Y597960D01*
X212202Y597510D01*
X211730Y597416D01*
X211730Y601981D01*
G37*
%LPD*%
%LPC*%
G36*
X63055Y496569D02*
X63055Y496569D01*
X63149Y497041D01*
X63599Y498128D01*
X64252Y499105D01*
X65084Y499937D01*
X66061Y500590D01*
X67148Y501040D01*
X67620Y501134D01*
X67620Y496569D01*
X63055Y496569D01*
G37*
%LPD*%
%LPC*%
G36*
X47245Y287019D02*
X47245Y287019D01*
X47339Y287491D01*
X47789Y288578D01*
X48442Y289555D01*
X49274Y290387D01*
X50251Y291040D01*
X51338Y291490D01*
X51810Y291584D01*
X51810Y287019D01*
X47245Y287019D01*
G37*
%LPD*%
%LPC*%
G36*
X63055Y287019D02*
X63055Y287019D01*
X63149Y287491D01*
X63599Y288578D01*
X64252Y289555D01*
X65084Y290387D01*
X66061Y291040D01*
X67148Y291490D01*
X67620Y291584D01*
X67620Y287019D01*
X63055Y287019D01*
G37*
%LPD*%
%LPC*%
G36*
X338730Y601981D02*
X338730Y601981D01*
X343295Y601981D01*
X343201Y601509D01*
X342751Y600422D01*
X342098Y599445D01*
X341266Y598613D01*
X340289Y597960D01*
X339202Y597510D01*
X338730Y597416D01*
X338730Y601981D01*
G37*
%LPD*%
%LPC*%
G36*
X457716Y629919D02*
X457716Y629919D01*
X457810Y630391D01*
X458260Y631478D01*
X458913Y632455D01*
X459745Y633287D01*
X460722Y633940D01*
X461809Y634390D01*
X462281Y634484D01*
X462281Y629919D01*
X457716Y629919D01*
G37*
%LPD*%
%LPC*%
G36*
X13216Y623569D02*
X13216Y623569D01*
X13310Y624041D01*
X13760Y625128D01*
X14413Y626105D01*
X15245Y626937D01*
X16222Y627590D01*
X17309Y628040D01*
X17781Y628134D01*
X17781Y623569D01*
X13216Y623569D01*
G37*
%LPD*%
%LPC*%
G36*
X210819Y627381D02*
X210819Y627381D01*
X215384Y627381D01*
X215290Y626909D01*
X214840Y625822D01*
X214187Y624845D01*
X213355Y624013D01*
X212378Y623360D01*
X211291Y622910D01*
X210819Y622816D01*
X210819Y627381D01*
G37*
%LPD*%
%LPC*%
G36*
X204627Y604519D02*
X204627Y604519D01*
X204721Y604991D01*
X205171Y606078D01*
X205824Y607055D01*
X206656Y607887D01*
X207633Y608540D01*
X208720Y608990D01*
X209192Y609084D01*
X209192Y604519D01*
X204627Y604519D01*
G37*
%LPD*%
%LPC*%
G36*
X54348Y284481D02*
X54348Y284481D01*
X58913Y284481D01*
X58819Y284009D01*
X58369Y282922D01*
X57716Y281945D01*
X56884Y281113D01*
X55907Y280460D01*
X54820Y280010D01*
X54348Y279916D01*
X54348Y284481D01*
G37*
%LPD*%
%LPC*%
G36*
X63755Y528319D02*
X63755Y528319D01*
X63849Y528791D01*
X64299Y529878D01*
X64952Y530855D01*
X65784Y531687D01*
X66761Y532340D01*
X67848Y532790D01*
X68320Y532884D01*
X68320Y528319D01*
X63755Y528319D01*
G37*
%LPD*%
%LPC*%
G36*
X63755Y185419D02*
X63755Y185419D01*
X63849Y185891D01*
X64299Y186978D01*
X64952Y187955D01*
X65784Y188787D01*
X66761Y189440D01*
X67848Y189890D01*
X68320Y189984D01*
X68320Y185419D01*
X63755Y185419D01*
G37*
%LPD*%
%LPC*%
G36*
X70158Y494031D02*
X70158Y494031D01*
X74723Y494031D01*
X74629Y493559D01*
X74179Y492472D01*
X73526Y491495D01*
X72694Y490663D01*
X71717Y490010D01*
X70630Y489560D01*
X70158Y489466D01*
X70158Y494031D01*
G37*
%LPD*%
%LPC*%
G36*
X464819Y627381D02*
X464819Y627381D01*
X469384Y627381D01*
X469290Y626909D01*
X468840Y625822D01*
X468187Y624845D01*
X467355Y624013D01*
X466378Y623360D01*
X465291Y622910D01*
X464819Y622816D01*
X464819Y627381D01*
G37*
%LPD*%
%LPC*%
G36*
X70858Y182881D02*
X70858Y182881D01*
X75423Y182881D01*
X75329Y182409D01*
X74879Y181322D01*
X74226Y180345D01*
X73394Y179513D01*
X72417Y178860D01*
X71330Y178410D01*
X70858Y178316D01*
X70858Y182881D01*
G37*
%LPD*%
%LPC*%
G36*
X337819Y627381D02*
X337819Y627381D01*
X342384Y627381D01*
X342290Y626909D01*
X341840Y625822D01*
X341187Y624845D01*
X340355Y624013D01*
X339378Y623360D01*
X338291Y622910D01*
X337819Y622816D01*
X337819Y627381D01*
G37*
%LPD*%
%LPC*%
G36*
X20319Y621031D02*
X20319Y621031D01*
X24884Y621031D01*
X24790Y620559D01*
X24340Y619472D01*
X23687Y618495D01*
X22855Y617663D01*
X21878Y617010D01*
X20791Y616560D01*
X20319Y616466D01*
X20319Y621031D01*
G37*
%LPD*%
%LPC*%
G36*
X70858Y525781D02*
X70858Y525781D01*
X75423Y525781D01*
X75329Y525309D01*
X74879Y524222D01*
X74226Y523245D01*
X73394Y522413D01*
X72417Y521760D01*
X71330Y521310D01*
X70858Y521216D01*
X70858Y525781D01*
G37*
%LPD*%
%LPC*%
G36*
X465730Y601981D02*
X465730Y601981D01*
X470295Y601981D01*
X470201Y601509D01*
X469751Y600422D01*
X469098Y599445D01*
X468266Y598613D01*
X467289Y597960D01*
X466202Y597510D01*
X465730Y597416D01*
X465730Y601981D01*
G37*
%LPD*%
%LPC*%
G36*
X44966Y153669D02*
X44966Y153669D01*
X45060Y154141D01*
X45510Y155228D01*
X46163Y156205D01*
X46995Y157037D01*
X47972Y157690D01*
X49059Y158140D01*
X49531Y158234D01*
X49531Y153669D01*
X44966Y153669D01*
G37*
%LPD*%
%LPC*%
G36*
X63055Y153669D02*
X63055Y153669D01*
X63149Y154141D01*
X63599Y155228D01*
X64252Y156205D01*
X65084Y157037D01*
X66061Y157690D01*
X67148Y158140D01*
X67620Y158234D01*
X67620Y153669D01*
X63055Y153669D01*
G37*
%LPD*%
%LPC*%
G36*
X70158Y151131D02*
X70158Y151131D01*
X74723Y151131D01*
X74629Y150659D01*
X74179Y149572D01*
X73526Y148595D01*
X72694Y147763D01*
X71717Y147110D01*
X70630Y146660D01*
X70158Y146566D01*
X70158Y151131D01*
G37*
%LPD*%
%LPC*%
G36*
X52069Y151131D02*
X52069Y151131D01*
X56634Y151131D01*
X56540Y150659D01*
X56090Y149572D01*
X55437Y148595D01*
X54605Y147763D01*
X53628Y147110D01*
X52541Y146660D01*
X52069Y146566D01*
X52069Y151131D01*
G37*
%LPD*%
%LPC*%
G36*
X67148Y146660D02*
X67148Y146660D01*
X66061Y147110D01*
X65084Y147763D01*
X64252Y148595D01*
X63599Y149572D01*
X63149Y150659D01*
X63055Y151131D01*
X67620Y151131D01*
X67620Y146566D01*
X67148Y146660D01*
G37*
%LPD*%
%LPC*%
G36*
X49059Y146660D02*
X49059Y146660D01*
X47972Y147110D01*
X46995Y147763D01*
X46163Y148595D01*
X45510Y149572D01*
X45060Y150659D01*
X44966Y151131D01*
X49531Y151131D01*
X49531Y146566D01*
X49059Y146660D01*
G37*
%LPD*%
%LPC*%
G36*
X207809Y622910D02*
X207809Y622910D01*
X206722Y623360D01*
X205745Y624013D01*
X204913Y624845D01*
X204260Y625822D01*
X203810Y626909D01*
X203716Y627381D01*
X208281Y627381D01*
X208281Y622816D01*
X207809Y622910D01*
G37*
%LPD*%
%LPC*%
G36*
X51338Y489560D02*
X51338Y489560D01*
X50251Y490010D01*
X49274Y490663D01*
X48442Y491495D01*
X47789Y492472D01*
X47339Y493559D01*
X47245Y494031D01*
X51810Y494031D01*
X51810Y489466D01*
X51338Y489560D01*
G37*
%LPD*%
%LPC*%
G36*
X461809Y622910D02*
X461809Y622910D01*
X460722Y623360D01*
X459745Y624013D01*
X458913Y624845D01*
X458260Y625822D01*
X457810Y626909D01*
X457716Y627381D01*
X462281Y627381D01*
X462281Y622816D01*
X461809Y622910D01*
G37*
%LPD*%
%LPC*%
G36*
X17309Y616560D02*
X17309Y616560D01*
X16222Y617010D01*
X15245Y617663D01*
X14413Y618495D01*
X13760Y619472D01*
X13310Y620559D01*
X13216Y621031D01*
X17781Y621031D01*
X17781Y616466D01*
X17309Y616560D01*
G37*
%LPD*%
%LPC*%
G36*
X67148Y280010D02*
X67148Y280010D01*
X66061Y280460D01*
X65084Y281113D01*
X64252Y281945D01*
X63599Y282922D01*
X63149Y284009D01*
X63055Y284481D01*
X67620Y284481D01*
X67620Y279916D01*
X67148Y280010D01*
G37*
%LPD*%
%LPC*%
G36*
X334809Y622910D02*
X334809Y622910D01*
X333722Y623360D01*
X332745Y624013D01*
X331913Y624845D01*
X331260Y625822D01*
X330810Y626909D01*
X330716Y627381D01*
X335281Y627381D01*
X335281Y622816D01*
X334809Y622910D01*
G37*
%LPD*%
%LPC*%
G36*
X51338Y280010D02*
X51338Y280010D01*
X50251Y280460D01*
X49274Y281113D01*
X48442Y281945D01*
X47789Y282922D01*
X47339Y284009D01*
X47245Y284481D01*
X51810Y284481D01*
X51810Y279916D01*
X51338Y280010D01*
G37*
%LPD*%
%LPC*%
G36*
X67148Y489560D02*
X67148Y489560D01*
X66061Y490010D01*
X65084Y490663D01*
X64252Y491495D01*
X63599Y492472D01*
X63149Y493559D01*
X63055Y494031D01*
X67620Y494031D01*
X67620Y489466D01*
X67148Y489560D01*
G37*
%LPD*%
%LPC*%
G36*
X208720Y597510D02*
X208720Y597510D01*
X207633Y597960D01*
X206656Y598613D01*
X205824Y599445D01*
X205171Y600422D01*
X204721Y601509D01*
X204627Y601981D01*
X209192Y601981D01*
X209192Y597416D01*
X208720Y597510D01*
G37*
%LPD*%
%LPC*%
G36*
X462720Y597510D02*
X462720Y597510D01*
X461633Y597960D01*
X460656Y598613D01*
X459824Y599445D01*
X459171Y600422D01*
X458721Y601509D01*
X458627Y601981D01*
X463192Y601981D01*
X463192Y597416D01*
X462720Y597510D01*
G37*
%LPD*%
%LPC*%
G36*
X144309Y591160D02*
X144309Y591160D01*
X143222Y591610D01*
X142245Y592263D01*
X141413Y593095D01*
X140760Y594072D01*
X140310Y595159D01*
X140216Y595631D01*
X144781Y595631D01*
X144781Y591066D01*
X144309Y591160D01*
G37*
%LPD*%
%LPC*%
G36*
X67848Y311760D02*
X67848Y311760D01*
X66761Y312210D01*
X65784Y312863D01*
X64952Y313695D01*
X64299Y314672D01*
X63849Y315759D01*
X63755Y316231D01*
X68320Y316231D01*
X68320Y311666D01*
X67848Y311760D01*
G37*
%LPD*%
%LPC*%
G36*
X335720Y597510D02*
X335720Y597510D01*
X334633Y597960D01*
X333656Y598613D01*
X332824Y599445D01*
X332171Y600422D01*
X331721Y601509D01*
X331627Y601981D01*
X336192Y601981D01*
X336192Y597416D01*
X335720Y597510D01*
G37*
%LPD*%
%LPC*%
G36*
X67848Y521310D02*
X67848Y521310D01*
X66761Y521760D01*
X65784Y522413D01*
X64952Y523245D01*
X64299Y524222D01*
X63849Y525309D01*
X63755Y525781D01*
X68320Y525781D01*
X68320Y521216D01*
X67848Y521310D01*
G37*
%LPD*%
%LPC*%
G36*
X67848Y178410D02*
X67848Y178410D01*
X66761Y178860D01*
X65784Y179513D01*
X64952Y180345D01*
X64299Y181322D01*
X63849Y182409D01*
X63755Y182881D01*
X68320Y182881D01*
X68320Y178316D01*
X67848Y178410D01*
G37*
%LPD*%
%LPC*%
G36*
X571499Y380999D02*
X571499Y380999D01*
X571499Y381001D01*
X571501Y381001D01*
X571501Y380999D01*
X571499Y380999D01*
G37*
%LPD*%
%LPC*%
G36*
X571499Y330199D02*
X571499Y330199D01*
X571499Y330201D01*
X571501Y330201D01*
X571501Y330199D01*
X571499Y330199D01*
G37*
%LPD*%
%LPC*%
G36*
X571499Y355599D02*
X571499Y355599D01*
X571499Y355601D01*
X571501Y355601D01*
X571501Y355599D01*
X571499Y355599D01*
G37*
%LPD*%
%LPC*%
G36*
X520699Y711199D02*
X520699Y711199D01*
X520699Y711201D01*
X520701Y711201D01*
X520701Y711199D01*
X520699Y711199D01*
G37*
%LPD*%
D10*
X138430Y488950D02*
X153670Y488950D01*
X153670Y514350D02*
X138430Y514350D01*
X138430Y539750D02*
X153670Y539750D01*
X153670Y463550D02*
X138430Y463550D01*
X487680Y342900D02*
X502920Y342900D01*
X502920Y368300D02*
X487680Y368300D01*
X538480Y127000D02*
X553720Y127000D01*
X553720Y152400D02*
X538480Y152400D01*
X538480Y177800D02*
X553720Y177800D01*
X553720Y101600D02*
X538480Y101600D01*
X538480Y76200D02*
X553720Y76200D01*
X553720Y50800D02*
X538480Y50800D01*
X563880Y330200D02*
X579120Y330200D01*
X579120Y355600D02*
X563880Y355600D01*
X563880Y381000D02*
X579120Y381000D01*
X101600Y703580D02*
X101600Y718820D01*
X76200Y718820D02*
X76200Y703580D01*
X50800Y703580D02*
X50800Y718820D01*
X127000Y718820D02*
X127000Y703580D01*
X152400Y703580D02*
X152400Y718820D01*
X177800Y718820D02*
X177800Y703580D01*
X203200Y703580D02*
X203200Y718820D01*
X419100Y718820D02*
X419100Y703580D01*
X393700Y703580D02*
X393700Y718820D01*
X368300Y718820D02*
X368300Y703580D01*
X444500Y703580D02*
X444500Y718820D01*
X469900Y718820D02*
X469900Y703580D01*
X495300Y703580D02*
X495300Y718820D01*
X520700Y718820D02*
X520700Y703580D01*
X280670Y488950D02*
X265430Y488950D01*
X265430Y514350D02*
X280670Y514350D01*
X280670Y539750D02*
X265430Y539750D01*
X265430Y463550D02*
X280670Y463550D01*
X392430Y488950D02*
X407670Y488950D01*
X407670Y514350D02*
X392430Y514350D01*
X392430Y539750D02*
X407670Y539750D01*
X407670Y463550D02*
X392430Y463550D01*
X153670Y279400D02*
X138430Y279400D01*
X138430Y304800D02*
X153670Y304800D01*
X153670Y330200D02*
X138430Y330200D01*
X138430Y254000D02*
X153670Y254000D01*
X271780Y279400D02*
X287020Y279400D01*
X287020Y304800D02*
X271780Y304800D01*
X271780Y330200D02*
X287020Y330200D01*
X287020Y254000D02*
X271780Y254000D01*
X392430Y279400D02*
X407670Y279400D01*
X407670Y304800D02*
X392430Y304800D01*
X392430Y330200D02*
X407670Y330200D01*
X407670Y254000D02*
X392430Y254000D01*
X153670Y69850D02*
X138430Y69850D01*
X138430Y95250D02*
X153670Y95250D01*
X153670Y120650D02*
X138430Y120650D01*
X138430Y44450D02*
X153670Y44450D01*
X271780Y69850D02*
X287020Y69850D01*
X287020Y95250D02*
X271780Y95250D01*
X271780Y120650D02*
X287020Y120650D01*
X287020Y44450D02*
X271780Y44450D01*
X392430Y69850D02*
X407670Y69850D01*
X407670Y95250D02*
X392430Y95250D01*
X392430Y120650D02*
X407670Y120650D01*
X407670Y44450D02*
X392430Y44450D01*
D11*
X400050Y330200D02*
X420243Y330200D01*
X426593Y323850D01*
D12*
X426593Y323850D03*
X302049Y313902D03*
X311150Y246634D03*
D11*
X302049Y289156D02*
X302049Y313902D01*
X302049Y289156D02*
X303530Y287675D01*
X303530Y254254D01*
X311150Y246634D01*
D12*
X349250Y127127D03*
D11*
X349250Y114173D01*
D12*
X349250Y114173D03*
X209550Y628650D03*
X210461Y603250D03*
X336550Y628650D03*
X337461Y603250D03*
X463550Y628650D03*
X464461Y603250D03*
X69589Y527050D03*
X19050Y622300D03*
X146050Y596900D03*
X69589Y317500D03*
X68889Y495300D03*
X53079Y495300D03*
X68889Y285750D03*
X53079Y285750D03*
X50800Y152400D03*
X68889Y152400D03*
X69589Y184150D03*
D13*
X227164Y711200D02*
X368300Y711200D01*
X227164Y711200D02*
X207987Y730377D01*
X69977Y730377D02*
X50800Y711200D01*
X69977Y730377D02*
X207987Y730377D01*
D12*
X165100Y450850D03*
D13*
X165100Y458636D02*
X165227Y458763D01*
X165100Y458636D02*
X165100Y450850D01*
X165227Y495173D02*
X146050Y514350D01*
X165227Y495173D02*
X165227Y458763D01*
D12*
X165100Y246634D03*
D13*
X165100Y249086D02*
X165227Y249213D01*
X165100Y249086D02*
X165100Y246634D01*
X165227Y285623D02*
X146050Y304800D01*
X165227Y285623D02*
X165227Y249213D01*
D12*
X177800Y582739D03*
D11*
X197050Y601989D01*
X197050Y609800D01*
D12*
X197050Y609800D03*
X292100Y450850D03*
D13*
X273050Y512914D02*
X273050Y514350D01*
X292227Y458763D02*
X292100Y458636D01*
X292100Y450850D01*
X292227Y493737D02*
X273050Y512914D01*
X292227Y493737D02*
X292227Y458763D01*
X279400Y304800D02*
X298577Y285623D01*
X298577Y246761D01*
X298450Y246634D01*
D12*
X298450Y246634D03*
X304800Y582739D03*
D11*
X324050Y601989D01*
X324050Y609800D01*
D12*
X324050Y609800D03*
X437044Y582739D03*
D11*
X437044Y595794D01*
X451050Y609800D01*
D12*
X451050Y609800D03*
D11*
X425450Y539750D02*
X400050Y539750D01*
X425450Y539750D02*
X431800Y533400D01*
D12*
X431800Y533400D03*
X190500Y311277D03*
D11*
X190500Y246634D01*
D12*
X190500Y246634D03*
X203200Y101727D03*
D11*
X203200Y49784D01*
X190500Y37084D01*
D12*
X190500Y37084D03*
X571500Y50800D03*
D11*
X546100Y50800D01*
D12*
X40125Y349250D03*
D11*
X46475Y342900D01*
X53079Y342900D01*
D12*
X53079Y342900D03*
X37973Y546100D03*
D11*
X63627Y546100D01*
D12*
X63627Y546100D03*
M02*
