M48
;GenerationSoftware,Autodesk,EAGLE,9.5.1*%
;CreationDate,2019-11-04T20:26:33Z*%
FMAT,2
ICI,OFF
METRIC,TZ,000.000
T3C0.381
T2C1.016
T1C3.600
%
G90
M71
T1
X56515Y56515
X6350Y6350
T2
X40005Y4445
X54610Y7620
X40005Y12065
X40005Y9525
X40005Y6985
X27940Y4445
X27940Y12065
X27940Y9525
X27940Y6985
X14605Y4445
X14605Y12065
X14605Y9525
X14605Y6985
X40005Y25400
X40005Y33020
X40005Y30480
X40005Y27940
X27940Y25400
X27940Y33020
X27940Y30480
X27940Y27940
X14605Y25400
X14605Y33020
X14605Y30480
X14605Y27940
X40005Y46355
X40005Y53975
X40005Y51435
X40005Y48895
X27305Y46355
X27305Y53975
X27305Y51435
X27305Y48895
X52070Y71120
X49530Y71120
X46990Y71120
X44450Y71120
X36830Y71120
X39370Y71120
X41910Y71120
X20320Y71120
X54610Y17780
X14605Y48895
X14605Y51435
X14605Y53975
X14605Y46355
X49530Y34290
X49530Y36830
X54610Y12700
X54610Y15240
X17780Y71120
X54610Y10160
X15240Y71120
X54610Y5080
X57150Y33020
X57150Y35560
X57150Y38100
X10160Y71120
X7620Y71120
X5080Y71120
X12700Y71120
T3
X34925Y12713
X31115Y24663
X30205Y31390
X6363Y54610
X3797Y54610
X5308Y34290
X4012Y34925
X57150Y5080
X19050Y3708
X20320Y10173
X19050Y24663
X19050Y31128
X43180Y53340
X45105Y60980
X43704Y58274
X32405Y60980
X30480Y58274
X29845Y24663
X29210Y45085
X19705Y60980
X17780Y58274
X16510Y24663
X16510Y45085
X6959Y18415
X6889Y15240
X5080Y15240
X5308Y28575
X6889Y28575
X5308Y49530
X6889Y49530
X6959Y31750
X14605Y59690
X1905Y62230
X6959Y52705
X46446Y60325
X46355Y62865
X33746Y60325
X33655Y62865
X21046Y60325
X20955Y62865
X34925Y11417
X42659Y32385
M30