M48
;GenerationSoftware,Autodesk,EAGLE,9.5.1*%
;CreationDate,2019-11-04T20:33:34Z*%
FMAT,2
ICI,OFF
METRIC,TZ,000.000
T6C0.381
T5C0.743
T4C0.900
T3C1.000
T2C1.016
T1C1.194
%
G90
M71
T1
X91480Y4445
X96480Y4445
X50205Y4445
X55205Y4445
X61635Y4445
X66635Y4445
T2
X24130Y31750
X24130Y34290
X26670Y31750
X26670Y34290
X19050Y19050
X19050Y21590
X19050Y24130
X90805Y77470
X90805Y80010
X90805Y82550
X90805Y85090
X90805Y87630
X90805Y95250
X90805Y92710
X90805Y90170
X80645Y77470
X80645Y80010
X80645Y82550
X80645Y85090
X80645Y87630
X80645Y95250
X80645Y92710
X80645Y90170
X70485Y77470
X70485Y80010
X70485Y82550
X70485Y85090
X70485Y87630
X70485Y95250
X70485Y92710
X70485Y90170
X60325Y77470
X60325Y80010
X60325Y82550
X60325Y85090
X60325Y87630
X60325Y95250
X60325Y92710
X60325Y90170
X50165Y77470
X50165Y80010
X50165Y82550
X50165Y85090
X50165Y87630
X50165Y95250
X50165Y92710
X50165Y90170
X40005Y77470
X40005Y80010
X40005Y82550
X40005Y85090
X40005Y87630
X40005Y95250
X40005Y92710
X40005Y90170
X29845Y77470
X29845Y80010
X29845Y82550
X29845Y85090
X29845Y87630
X29845Y95250
X29845Y92710
X29845Y90170
X19685Y77470
X19685Y80010
X19685Y82550
X19685Y85090
X19685Y87630
X19685Y95250
X19685Y92710
X19685Y90170
X29210Y31750
X29210Y34290
X12065Y33655
X12065Y36195
X12065Y38735
X12065Y41275
X12065Y43815
X9525Y90170
X9525Y92710
X9525Y95250
X9525Y87630
X9525Y85090
X9525Y82550
X9525Y80010
X9525Y77470
X64135Y31750
X61595Y31750
X59055Y31750
X66675Y31750
X69215Y31750
X71755Y31750
X85725Y31750
X83185Y31750
X80645Y31750
X88265Y31750
X90805Y31750
X93345Y31750
X95250Y24130
X92710Y24130
X90170Y24130
X81280Y24130
X78740Y24130
X76200Y24130
X67310Y24130
X64770Y24130
X62230Y24130
X53340Y24130
X50800Y24130
X48260Y24130
X93980Y13970
X91440Y13970
X80645Y13970
X78105Y13970
X66040Y13970
X63500Y13970
X52070Y13970
X49530Y13970
X73025Y57150
X75565Y57150
X78105Y57150
X80645Y57150
X88265Y57150
X85725Y57150
X83185Y57150
X93345Y42545
X90805Y42545
X88265Y42545
X80645Y42545
X83185Y42545
X85725Y42545
X71755Y42545
X69215Y42545
X66675Y42545
X59055Y42545
X61595Y42545
X64135Y42545
T3
X5445Y40935
X5445Y36535
T4
X37465Y40005
X37465Y42545
X34925Y42545
X34925Y37465
X37465Y37465
X34925Y40005
T5
X2540Y25400
X2540Y22860
X2540Y20320
X2540Y17780
X2540Y15240
X2540Y12700
X2540Y10160
X10160Y10160
X10160Y12700
X10160Y15240
X10160Y17780
X10160Y22860
X10160Y25400
X10160Y20320
T6
X44654Y34494
X43815Y27940
X17103Y17738
X17109Y19721
X43815Y12027
X44450Y37170
X34019Y36449
X36195Y36055
X33655Y35560
X36477Y35166
X46990Y32385
X44704Y15494
X44463Y12700
X17145Y15960
X14112Y19353
X44704Y27940
X43815Y6350
X41275Y8890
X17076Y16849
X15001Y19337
X43167Y18415
X39370Y29210
X39370Y32626
X39370Y34925
X38824Y40253
X40005Y41910
X45085Y42840
X49168Y46355
X46912Y46433
X50165Y46355
X45720Y46990
X20991Y18379
X48067Y39123
X41275Y36195
X31750Y30480
X47650Y33655
X46355Y33020
X44450Y31115
X53949Y55219
X49593Y54610
X83820Y53975
X53396Y53396
X54623Y50687
X49530Y47625
X47466Y47136
X53396Y52126
X49530Y52070
X65008Y57547
X62865Y60325
X53360Y63520
X49530Y63500
X82530Y68560
X84455Y71266
X62210Y68560
X64135Y71266
X72370Y68560
X74295Y71266
X92690Y68560
X94615Y71266
X52050Y68560
X53975Y71266
X41890Y68560
X43815Y71266
X31730Y68560
X33655Y71266
X21570Y68560
X23495Y71266
X11410Y68560
X13335Y71266
X55245Y59055
X57805Y59075
X37439Y56502
X37465Y58204
X11430Y58420
X10458Y57448
X16510Y57772
X16510Y59068
X22225Y57772
X22860Y59715
X65405Y28575
X69215Y28575
X66040Y27927
X48260Y37465
X49530Y35560
X48555Y38354
X50165Y36385
X47758Y40012
X67346Y40604
X63464Y40604
X52705Y39992
X53340Y40640
X48260Y40767
X55245Y41910
X48260Y41656
X55270Y43180
X48260Y42545
X53340Y64770
X38722Y33655
X30480Y39370
X42166Y45278
X39370Y21590
X41910Y22860
X41910Y24130
X40640Y23495
X39370Y22860
X39370Y24130
X41910Y25400
X40640Y24765
X39370Y25400
X40640Y26035
X40640Y22225
X41910Y21590
X41275Y20320
X31750Y10160
X16220Y19376
X15875Y14605
X2540Y31750
X6542Y36830
X33681Y32398
X38100Y26670
X53975Y34290
X45695Y34290
X71755Y59690
X70485Y57150
X57672Y56667
X44450Y49530
X58560Y50305
X10069Y69215
X20229Y69215
X30389Y69215
X40549Y69215
X50709Y69215
X60869Y69215
X71029Y69215
X81189Y69215
X91349Y69215
X91440Y66675
X86360Y66675
X81280Y66675
X76200Y66675
X71120Y66675
X66040Y66675
X60960Y66675
X55880Y66675
X48260Y66675
X40640Y66675
X35560Y66675
X30480Y66675
X27914Y66040
X22860Y64770
X16510Y64135
X11430Y64135
X7620Y64135
X29845Y55245
X34925Y55245
X40005Y55245
X38100Y52070
X33020Y52070
X27940Y52070
X22860Y52070
X24130Y57772
X19050Y57150
X17780Y52070
X14509Y52705
X13335Y57150
X6985Y55880
X8479Y50165
X13335Y18012
X13724Y16716
X63995Y57645
X58930Y55867
X50165Y59055
X49530Y57137
X35560Y44949
X43815Y16510
M30