G04 EAGLE Gerber RS-274X export*
G75*
%MOMM*%
%FSLAX34Y34*%
%LPD*%
%INSolderpaste Top*%
%IPPOS*%
%AMOC8*
5,1,8,0,0,1.08239X$1,22.5*%
G01*
%ADD10R,1.300000X1.500000*%
%ADD11R,1.500000X1.300000*%
%ADD12R,2.400000X2.000000*%
%ADD13R,2.308000X0.500000*%
%ADD14R,2.032000X0.660400*%
%ADD15R,5.334000X1.930400*%
%ADD16R,0.547100X1.599800*%
%ADD17R,1.599800X0.547100*%
%ADD18R,0.609200X1.259300*%
%ADD19R,1.000000X1.400000*%
%ADD20R,2.108200X1.397000*%
%ADD21R,2.000000X2.000000*%
%ADD22R,1.600200X1.168400*%
%ADD23R,2.286000X2.794000*%
%ADD24C,0.270000*%
%ADD25R,3.200000X1.600000*%


D10*
X542950Y571500D03*
X561950Y571500D03*
D11*
X692150Y587350D03*
X692150Y568350D03*
D12*
X79450Y431350D03*
D13*
X85090Y403350D03*
X85090Y395350D03*
X85090Y387350D03*
X85090Y379350D03*
X85090Y371350D03*
D12*
X24450Y431350D03*
X79450Y343350D03*
X24450Y343350D03*
D14*
X458216Y590550D03*
X519684Y590550D03*
X458216Y577850D03*
X458216Y565150D03*
X519684Y577850D03*
X519684Y565150D03*
X458216Y552450D03*
X519684Y552450D03*
X458216Y539750D03*
X519684Y539750D03*
X458216Y527050D03*
X458216Y514350D03*
X519684Y527050D03*
X519684Y514350D03*
X458216Y501650D03*
X519684Y501650D03*
X604266Y590550D03*
X665734Y590550D03*
X604266Y577850D03*
X604266Y565150D03*
X665734Y577850D03*
X665734Y565150D03*
X604266Y552450D03*
X665734Y552450D03*
X604266Y539750D03*
X665734Y539750D03*
X604266Y527050D03*
X604266Y514350D03*
X665734Y527050D03*
X665734Y514350D03*
X604266Y501650D03*
X665734Y501650D03*
D15*
X415290Y311150D03*
X511810Y311150D03*
D11*
X374650Y333350D03*
X374650Y314350D03*
X552450Y346050D03*
X552450Y327050D03*
D16*
X429200Y358237D03*
X437200Y358237D03*
X445200Y358237D03*
X453200Y358237D03*
X461200Y358237D03*
X469200Y358237D03*
X477200Y358237D03*
X485200Y358237D03*
D17*
X499013Y372050D03*
X499013Y380050D03*
X499013Y388050D03*
X499013Y396050D03*
X499013Y404050D03*
X499013Y412050D03*
X499013Y420050D03*
X499013Y428050D03*
D16*
X485200Y441863D03*
X477200Y441863D03*
X469200Y441863D03*
X461200Y441863D03*
X453200Y441863D03*
X445200Y441863D03*
X437200Y441863D03*
X429200Y441863D03*
D17*
X415387Y428050D03*
X415387Y420050D03*
X415387Y412050D03*
X415387Y404050D03*
X415387Y396050D03*
X415387Y388050D03*
X415387Y380050D03*
X415387Y372050D03*
D11*
X349250Y327050D03*
X349250Y346050D03*
X215900Y320700D03*
X215900Y339700D03*
X323850Y327050D03*
X323850Y346050D03*
D10*
X371450Y190500D03*
X352450Y190500D03*
X415900Y190500D03*
X396900Y190500D03*
X352400Y101600D03*
X333400Y101600D03*
X339750Y266700D03*
X358750Y266700D03*
D18*
X333400Y216320D03*
X342900Y216320D03*
X352400Y216320D03*
X352400Y240880D03*
X342900Y240880D03*
X333400Y240880D03*
D19*
X196850Y497000D03*
X187350Y519000D03*
X206350Y519000D03*
D11*
X209550Y561950D03*
X209550Y542950D03*
X184150Y561950D03*
X184150Y542950D03*
D19*
X146050Y497000D03*
X136550Y519000D03*
X155550Y519000D03*
D11*
X158750Y561950D03*
X158750Y542950D03*
X133350Y561950D03*
X133350Y542950D03*
D19*
X95250Y497000D03*
X85750Y519000D03*
X104750Y519000D03*
D11*
X107950Y561950D03*
X107950Y542950D03*
X82550Y561950D03*
X82550Y542950D03*
D19*
X400050Y497000D03*
X390550Y519000D03*
X409550Y519000D03*
D11*
X412750Y561950D03*
X412750Y542950D03*
X387350Y561950D03*
X387350Y542950D03*
D19*
X349250Y497000D03*
X339750Y519000D03*
X358750Y519000D03*
D11*
X361950Y561950D03*
X361950Y542950D03*
X336550Y561950D03*
X336550Y542950D03*
D19*
X247650Y497000D03*
X238150Y519000D03*
X257150Y519000D03*
D11*
X260350Y561950D03*
X260350Y542950D03*
X234950Y561950D03*
X234950Y542950D03*
D19*
X298450Y497000D03*
X288950Y519000D03*
X307950Y519000D03*
D11*
X311150Y561950D03*
X311150Y542950D03*
X285750Y561950D03*
X285750Y542950D03*
D19*
X82550Y722200D03*
X92050Y700200D03*
X73050Y700200D03*
D11*
X88900Y657250D03*
X88900Y676250D03*
X63500Y657250D03*
X63500Y676250D03*
D19*
X111150Y700200D03*
X130150Y700200D03*
X120650Y722200D03*
D11*
X139700Y657250D03*
X139700Y676250D03*
X114300Y657250D03*
X114300Y676250D03*
D19*
X184150Y722200D03*
X193650Y700200D03*
X174650Y700200D03*
D11*
X190500Y657250D03*
X190500Y676250D03*
X165100Y657250D03*
X165100Y676250D03*
D19*
X212750Y700200D03*
X231750Y700200D03*
X222250Y722200D03*
D11*
X241300Y657250D03*
X241300Y676250D03*
X215900Y657250D03*
X215900Y676250D03*
D19*
X285750Y722200D03*
X295250Y700200D03*
X276250Y700200D03*
D11*
X292100Y657250D03*
X292100Y676250D03*
X266700Y657250D03*
X266700Y676250D03*
D19*
X314350Y700200D03*
X333350Y700200D03*
X323850Y722200D03*
D11*
X342900Y657250D03*
X342900Y676250D03*
X317500Y657250D03*
X317500Y676250D03*
D19*
X387350Y722200D03*
X396850Y700200D03*
X377850Y700200D03*
D11*
X393700Y657250D03*
X393700Y676250D03*
X368300Y657250D03*
X368300Y676250D03*
D19*
X415950Y700200D03*
X434950Y700200D03*
X425450Y722200D03*
D11*
X444500Y657250D03*
X444500Y676250D03*
X419100Y657250D03*
X419100Y676250D03*
D19*
X488950Y722200D03*
X498450Y700200D03*
X479450Y700200D03*
D11*
X495300Y657250D03*
X495300Y676250D03*
X469900Y657250D03*
X469900Y676250D03*
D19*
X517550Y700200D03*
X536550Y700200D03*
X527050Y722200D03*
D11*
X546100Y657250D03*
X546100Y676250D03*
X520700Y657250D03*
X520700Y676250D03*
D19*
X590550Y722200D03*
X600050Y700200D03*
X581050Y700200D03*
D11*
X596900Y657250D03*
X596900Y676250D03*
X571500Y657250D03*
X571500Y676250D03*
D19*
X619150Y700200D03*
X638150Y700200D03*
X628650Y722200D03*
D11*
X647700Y657250D03*
X647700Y676250D03*
X622300Y657250D03*
X622300Y676250D03*
D19*
X692150Y722200D03*
X701650Y700200D03*
X682650Y700200D03*
D11*
X698500Y657250D03*
X698500Y676250D03*
X673100Y657250D03*
X673100Y676250D03*
D19*
X720750Y700200D03*
X739750Y700200D03*
X730250Y722200D03*
D11*
X749300Y657250D03*
X749300Y676250D03*
X723900Y657250D03*
X723900Y676250D03*
D19*
X793750Y722200D03*
X803250Y700200D03*
X784250Y700200D03*
D11*
X800100Y657250D03*
X800100Y676250D03*
X774700Y657250D03*
X774700Y676250D03*
D19*
X822350Y700200D03*
X841350Y700200D03*
X831850Y722200D03*
D11*
X850900Y657250D03*
X850900Y676250D03*
X825500Y657250D03*
X825500Y676250D03*
D19*
X895350Y722200D03*
X904850Y700200D03*
X885850Y700200D03*
D11*
X901700Y657250D03*
X901700Y676250D03*
X876300Y657250D03*
X876300Y676250D03*
D19*
X923950Y700200D03*
X942950Y700200D03*
X933450Y722200D03*
D11*
X952500Y657250D03*
X952500Y676250D03*
X927100Y657250D03*
X927100Y676250D03*
D20*
X311150Y425450D03*
X219964Y425450D03*
X311150Y380492D03*
X219964Y380492D03*
D10*
X130200Y158750D03*
X149200Y158750D03*
D11*
X12700Y288950D03*
X12700Y307950D03*
D10*
X435000Y44450D03*
X454000Y44450D03*
X835050Y520700D03*
X854050Y520700D03*
X796950Y609600D03*
X815950Y609600D03*
X733450Y609600D03*
X752450Y609600D03*
D21*
X356550Y139700D03*
X316550Y139700D03*
D22*
X374650Y213360D03*
X374650Y228600D03*
X374650Y243840D03*
D23*
X385940Y139700D03*
X426860Y139700D03*
D11*
X133350Y219100D03*
X133350Y238100D03*
X158750Y219100D03*
X158750Y238100D03*
D24*
X144900Y182885D02*
X144900Y178291D01*
X149900Y178291D02*
X149900Y182885D01*
X154900Y182885D02*
X154900Y178291D01*
X159900Y178291D02*
X159900Y182885D01*
X159900Y198115D02*
X159900Y202709D01*
X154900Y202709D02*
X154900Y198115D01*
X149900Y198115D02*
X149900Y202709D01*
X144900Y202709D02*
X144900Y198115D01*
D25*
X266700Y275450D03*
X266700Y194450D03*
M02*
