G04 EAGLE Gerber RS-274X export*
G75*
%MOMM*%
%FSLAX34Y34*%
%LPD*%
%IN*%
%IPPOS*%
%AMOC8*
5,1,8,0,0,1.08239X$1,22.5*%
G01*
%ADD10C,0.254000*%


D10*
X0Y0D02*
X996750Y0D01*
X996750Y1000000D01*
X0Y1000000D01*
X0Y0D01*
X54169Y404350D02*
X53611Y404413D01*
X53064Y404538D01*
X52534Y404723D01*
X52028Y404967D01*
X51552Y405266D01*
X51113Y405616D01*
X50716Y406013D01*
X50366Y406452D01*
X50067Y406928D01*
X49823Y407434D01*
X49638Y407964D01*
X49513Y408511D01*
X49450Y409069D01*
X49450Y409631D01*
X49513Y410189D01*
X49638Y410736D01*
X49823Y411266D01*
X50067Y411772D01*
X50366Y412248D01*
X50716Y412687D01*
X51113Y413084D01*
X51552Y413434D01*
X52028Y413733D01*
X52534Y413977D01*
X53064Y414162D01*
X53611Y414287D01*
X54169Y414350D01*
X54731Y414350D01*
X55289Y414287D01*
X55836Y414162D01*
X56366Y413977D01*
X56872Y413733D01*
X57348Y413434D01*
X57787Y413084D01*
X58184Y412687D01*
X58534Y412248D01*
X58833Y411772D01*
X59077Y411266D01*
X59262Y410736D01*
X59387Y410189D01*
X59450Y409631D01*
X59450Y409069D01*
X59387Y408511D01*
X59262Y407964D01*
X59077Y407434D01*
X58833Y406928D01*
X58534Y406452D01*
X58184Y406013D01*
X57787Y405616D01*
X57348Y405266D01*
X56872Y404967D01*
X56366Y404723D01*
X55836Y404538D01*
X55289Y404413D01*
X54731Y404350D01*
X54169Y404350D01*
X54169Y360350D02*
X53611Y360413D01*
X53064Y360538D01*
X52534Y360723D01*
X52028Y360967D01*
X51552Y361266D01*
X51113Y361616D01*
X50716Y362013D01*
X50366Y362452D01*
X50067Y362928D01*
X49823Y363434D01*
X49638Y363964D01*
X49513Y364511D01*
X49450Y365069D01*
X49450Y365631D01*
X49513Y366189D01*
X49638Y366736D01*
X49823Y367266D01*
X50067Y367772D01*
X50366Y368248D01*
X50716Y368687D01*
X51113Y369084D01*
X51552Y369434D01*
X52028Y369733D01*
X52534Y369977D01*
X53064Y370162D01*
X53611Y370287D01*
X54169Y370350D01*
X54731Y370350D01*
X55289Y370287D01*
X55836Y370162D01*
X56366Y369977D01*
X56872Y369733D01*
X57348Y369434D01*
X57787Y369084D01*
X58184Y368687D01*
X58534Y368248D01*
X58833Y367772D01*
X59077Y367266D01*
X59262Y366736D01*
X59387Y366189D01*
X59450Y365631D01*
X59450Y365069D01*
X59387Y364511D01*
X59262Y363964D01*
X59077Y363434D01*
X58833Y362928D01*
X58534Y362452D01*
X58184Y362013D01*
X57787Y361616D01*
X57348Y361266D01*
X56872Y360967D01*
X56366Y360723D01*
X55836Y360538D01*
X55289Y360413D01*
X54731Y360350D01*
X54169Y360350D01*
M02*
