G04 EAGLE Gerber RS-274X export*
G75*
%MOMM*%
%FSLAX34Y34*%
%LPD*%
%INSoldermask Bottom*%
%IPPOS*%
%AMOC8*
5,1,8,0,0,1.08239X$1,22.5*%
G01*
%ADD10C,1.101600*%
%ADD11C,1.625600*%
%ADD12C,1.727200*%
%ADD13C,1.445000*%
%ADD14C,1.892300*%
%ADD15R,1.601600X1.401600*%
%ADD16P,1.759533X8X22.500000*%


D10*
X54450Y409350D03*
X54450Y365350D03*
D11*
X87630Y901700D02*
X102870Y901700D01*
X102870Y927100D02*
X87630Y927100D01*
X87630Y952500D02*
X102870Y952500D01*
X102870Y876300D02*
X87630Y876300D01*
X87630Y850900D02*
X102870Y850900D01*
X102870Y825500D02*
X87630Y825500D01*
X87630Y800100D02*
X102870Y800100D01*
X102870Y774700D02*
X87630Y774700D01*
X641350Y325120D02*
X641350Y309880D01*
X615950Y309880D02*
X615950Y325120D01*
X590550Y325120D02*
X590550Y309880D01*
X666750Y309880D02*
X666750Y325120D01*
X692150Y325120D02*
X692150Y309880D01*
X717550Y309880D02*
X717550Y325120D01*
X857250Y325120D02*
X857250Y309880D01*
X831850Y309880D02*
X831850Y325120D01*
X806450Y325120D02*
X806450Y309880D01*
X882650Y309880D02*
X882650Y325120D01*
X908050Y325120D02*
X908050Y309880D01*
X933450Y309880D02*
X933450Y325120D01*
X641350Y417830D02*
X641350Y433070D01*
X615950Y433070D02*
X615950Y417830D01*
X590550Y417830D02*
X590550Y433070D01*
X666750Y433070D02*
X666750Y417830D01*
X692150Y417830D02*
X692150Y433070D01*
X717550Y433070D02*
X717550Y417830D01*
X857250Y417830D02*
X857250Y433070D01*
X831850Y433070D02*
X831850Y417830D01*
X806450Y417830D02*
X806450Y433070D01*
X882650Y433070D02*
X882650Y417830D01*
X908050Y417830D02*
X908050Y433070D01*
X933450Y433070D02*
X933450Y417830D01*
X831850Y563880D02*
X831850Y579120D01*
X857250Y579120D02*
X857250Y563880D01*
X882650Y563880D02*
X882650Y579120D01*
X806450Y579120D02*
X806450Y563880D01*
X781050Y563880D02*
X781050Y579120D01*
X755650Y579120D02*
X755650Y563880D01*
X730250Y563880D02*
X730250Y579120D01*
X495300Y147320D02*
X495300Y132080D01*
X520700Y132080D02*
X520700Y147320D01*
X635000Y147320D02*
X635000Y132080D01*
X660400Y132080D02*
X660400Y147320D01*
X781050Y147320D02*
X781050Y132080D01*
X806450Y132080D02*
X806450Y147320D01*
X914400Y147320D02*
X914400Y132080D01*
X939800Y132080D02*
X939800Y147320D01*
X482600Y233680D02*
X482600Y248920D01*
X508000Y248920D02*
X508000Y233680D01*
X533400Y233680D02*
X533400Y248920D01*
X622300Y248920D02*
X622300Y233680D01*
X647700Y233680D02*
X647700Y248920D01*
X673100Y248920D02*
X673100Y233680D01*
X762000Y233680D02*
X762000Y248920D01*
X787400Y248920D02*
X787400Y233680D01*
X812800Y233680D02*
X812800Y248920D01*
X901700Y248920D02*
X901700Y233680D01*
X927100Y233680D02*
X927100Y248920D01*
X952500Y248920D02*
X952500Y233680D01*
D12*
X349250Y400050D03*
X374650Y400050D03*
X374650Y425450D03*
X349250Y425450D03*
X349250Y374650D03*
X374650Y374650D03*
D13*
X25400Y254000D03*
X25400Y228600D03*
X25400Y203200D03*
X25400Y177800D03*
X25400Y152400D03*
X25400Y127000D03*
X25400Y101600D03*
X101600Y101600D03*
X101600Y127000D03*
X101600Y152400D03*
X101600Y177800D03*
X101600Y203200D03*
X101600Y228600D03*
X101600Y254000D03*
D11*
X113030Y438150D02*
X128270Y438150D01*
X128270Y412750D02*
X113030Y412750D01*
X113030Y387350D02*
X128270Y387350D01*
X128270Y361950D02*
X113030Y361950D01*
X113030Y336550D02*
X128270Y336550D01*
D14*
X914800Y53404D02*
X914800Y35497D01*
X964800Y35497D02*
X964800Y53404D01*
D11*
X204470Y901700D02*
X189230Y901700D01*
X189230Y927100D02*
X204470Y927100D01*
X204470Y952500D02*
X189230Y952500D01*
X189230Y876300D02*
X204470Y876300D01*
X204470Y850900D02*
X189230Y850900D01*
X189230Y825500D02*
X204470Y825500D01*
X204470Y800100D02*
X189230Y800100D01*
X189230Y774700D02*
X204470Y774700D01*
X290830Y901700D02*
X306070Y901700D01*
X306070Y927100D02*
X290830Y927100D01*
X290830Y952500D02*
X306070Y952500D01*
X306070Y876300D02*
X290830Y876300D01*
X290830Y850900D02*
X306070Y850900D01*
X306070Y825500D02*
X290830Y825500D01*
X290830Y800100D02*
X306070Y800100D01*
X306070Y774700D02*
X290830Y774700D01*
X392430Y901700D02*
X407670Y901700D01*
X407670Y927100D02*
X392430Y927100D01*
X392430Y952500D02*
X407670Y952500D01*
X407670Y876300D02*
X392430Y876300D01*
X392430Y850900D02*
X407670Y850900D01*
X407670Y825500D02*
X392430Y825500D01*
X392430Y800100D02*
X407670Y800100D01*
X407670Y774700D02*
X392430Y774700D01*
X494030Y901700D02*
X509270Y901700D01*
X509270Y927100D02*
X494030Y927100D01*
X494030Y952500D02*
X509270Y952500D01*
X509270Y876300D02*
X494030Y876300D01*
X494030Y850900D02*
X509270Y850900D01*
X509270Y825500D02*
X494030Y825500D01*
X494030Y800100D02*
X509270Y800100D01*
X509270Y774700D02*
X494030Y774700D01*
X595630Y901700D02*
X610870Y901700D01*
X610870Y927100D02*
X595630Y927100D01*
X595630Y952500D02*
X610870Y952500D01*
X610870Y876300D02*
X595630Y876300D01*
X595630Y850900D02*
X610870Y850900D01*
X610870Y825500D02*
X595630Y825500D01*
X595630Y800100D02*
X610870Y800100D01*
X610870Y774700D02*
X595630Y774700D01*
X697230Y901700D02*
X712470Y901700D01*
X712470Y927100D02*
X697230Y927100D01*
X697230Y952500D02*
X712470Y952500D01*
X712470Y876300D02*
X697230Y876300D01*
X697230Y850900D02*
X712470Y850900D01*
X712470Y825500D02*
X697230Y825500D01*
X697230Y800100D02*
X712470Y800100D01*
X712470Y774700D02*
X697230Y774700D01*
X798830Y901700D02*
X814070Y901700D01*
X814070Y927100D02*
X798830Y927100D01*
X798830Y952500D02*
X814070Y952500D01*
X814070Y876300D02*
X798830Y876300D01*
X798830Y850900D02*
X814070Y850900D01*
X814070Y825500D02*
X798830Y825500D01*
X798830Y800100D02*
X814070Y800100D01*
X814070Y774700D02*
X798830Y774700D01*
X900430Y901700D02*
X915670Y901700D01*
X915670Y927100D02*
X900430Y927100D01*
X900430Y952500D02*
X915670Y952500D01*
X915670Y876300D02*
X900430Y876300D01*
X900430Y850900D02*
X915670Y850900D01*
X915670Y825500D02*
X900430Y825500D01*
X900430Y800100D02*
X915670Y800100D01*
X915670Y774700D02*
X900430Y774700D01*
X198120Y241300D02*
X182880Y241300D01*
X182880Y215900D02*
X198120Y215900D01*
X198120Y190500D02*
X182880Y190500D01*
D15*
X431800Y396850D03*
X431800Y377850D03*
D14*
X502050Y53404D02*
X502050Y35497D01*
X552050Y35497D02*
X552050Y53404D01*
X616350Y53404D02*
X616350Y35497D01*
X666350Y35497D02*
X666350Y53404D01*
D16*
X241300Y317500D03*
X241300Y342900D03*
X266700Y317500D03*
X266700Y342900D03*
X292100Y317500D03*
X292100Y342900D03*
D15*
X457200Y396850D03*
X457200Y377850D03*
M02*
